<?xml version="1.0"?>
<svg width="640" height="479.99999999999994" xmlns="http://www.w3.org/2000/svg" xmlnssvg="http://www.w3.org/2000/svg">
 <!-- Created with SVG-edit - https://github.com/SVG-Edit/svgedit-->
 <g class="layer">
  <title>Layer 1</title>
  <rect fill="#7f7f7f" height="0" id="svg_7" stroke="#000000" transform="matrix(1 0 0 1 0 0)" width="0.83" x="-59.83" y="-86.5">Большой Спорт Зал</rect>
  <line fill="none" id="svg_22" stroke="#000000" transform="matrix(1 0 0 1 0 0)" x1="60.45" x2="172.2" y1="9.75" y2="121.75"/>
  <line fill="none" id="svg_24" stroke="#000000" x1="60.7" x2="12.45" y1="9.75" y2="57.75"/>
  <line fill="none" id="svg_25" stroke="#000000" transform="matrix(1 0 0 1 0 0)" x1="124.95" x2="12.2" y1="169.25" y2="57"/>
  <line fill="none" id="svg_26" stroke="#000000" x1="172.2" x2="139.95" y1="121.8" y2="155.05"/>
  <line fill="none" id="svg_27" stroke="#000000" x1="129.2" x2="111.7" y1="110.05" y2="126.55"/>
  <line fill="none" id="svg_28" stroke="#000000" x1="107.2" x2="96.76" y1="130.59" y2="140.91"/>
  <line fill="none" id="svg_29" stroke="#000000" x1="100.89" x2="106.54" y1="145.37" y2="140.15"/>
  <line fill="none" id="svg_31" stroke="#000000" x1="119.91" x2="111.43" y1="146.89" y2="155.15"/>
  <line fill="none" id="svg_32" stroke="#000000" x1="109.76" x2="120.37" y1="136.53" y2="147.11"/>
  <line fill="none" id="svg_33" stroke="#000000" transform="rotate(2.26658 121.6 158.045)" x1="125.35" x2="117.85" y1="154.02" y2="162.07"/>
  <line fill="none" id="svg_34" stroke="#000000" transform="rotate(2.57832 130.23 159.712)" x1="132.57" x2="127.89" y1="161.94" y2="157.49"/>
  <line fill="none" id="svg_35" stroke="#000000" x1="124.59" x2="134.26" y1="169.24" y2="160.43"/>
  <line fill="none" id="svg_36" stroke="#000000" x1="119.91" x2="133.07" y1="119.39" y2="132.65"/>
  <line fill="none" id="svg_37" stroke="#000000" x1="120.46" x2="127.41" y1="133.63" y2="126.89"/>
  <line fill="none" id="svg_38" stroke="#000000" x1="112.85" x2="117.96" y1="125.59" y2="131.02"/>
  <line fill="none" id="svg_39" stroke="#000000" x1="123.39" x2="129.15" y1="130.48" y2="136.46"/>
  <line fill="none" id="svg_42" stroke="#000000" x1="129.15" x2="126.22" y1="136.13" y2="139.07"/>
  <line fill="none" id="svg_43" stroke="#000000" x1="134.91" x2="131.76" y1="131.02" y2="134.07"/>
  <line fill="none" id="svg_44" stroke="#000000" x1="129.7" x2="127.85" y1="129.5" y2="131.24"/>
  <line fill="none" id="svg_45" stroke="#000000" x1="127.2" x2="133.93" y1="111.59" y2="118.76"/>
  <line fill="none" id="svg_46" stroke="#000000" x1="148.72" x2="131" y1="98.54" y2="115.72"/>
  <line fill="none" id="svg_47" stroke="#000000" transform="rotate(2.41638 139.37 99.5)" x1="144.59" x2="134.15" y1="93.85" y2="105.15"/>
  <line fill="none" id="svg_48" stroke="#000000" x1="135.57" x2="145.13" y1="110.72" y2="120.93"/>
  <line fill="none" id="svg_49" stroke="#000000" transform="rotate(6.56121 137.09 121.64)" x1="138.61" x2="135.57" y1="123" y2="120.28"/>
  <line fill="none" id="svg_50" stroke="#000000" x1="145.35" x2="135.78" y1="111.26" y2="120.61"/>
  <line fill="none" id="svg_51" stroke="#000000" x1="140.57" x2="143.28" y1="106.37" y2="109.3"/>
  <line fill="none" id="svg_52" stroke="#000000" x1="138.17" x2="141" y1="108.33" y2="111.59"/>
  <line fill="none" id="svg_53" stroke="#000000" x1="138.17" x2="135.89" y1="113.43" y2="115.83"/>
  <line fill="none" id="svg_54" stroke="#000000" transform="rotate(3.73745 142.845 118.215)" x1="144.8" x2="140.89" y1="116.15" y2="120.28"/>
  <line fill="none" id="svg_55" stroke="#000000" x1="150.02" x2="137.09" y1="116.15" y2="128.43"/>
  <line fill="none" id="svg_56" stroke="#000000" x1="145.05" x2="148.53" y1="110.8" y2="114.28"/>
  <line fill="none" id="svg_57" stroke="#000000" x1="162.63" x2="153.83" y1="112.02" y2="120.93"/>
  <line fill="none" id="svg_58" stroke="#000000" x1="149.91" x2="151.43" y1="115.51" y2="117.04"/>
  <line fill="none" id="svg_59" stroke="#000000" transform="rotate(-1.65004 151.76 132.35)" x1="156.11" x2="147.41" y1="128.11" y2="136.59"/>
  <line fill="none" id="svg_60" stroke="#000000" x1="151.43" x2="154.48" y1="123.33" y2="126.37"/>
  <line fill="none" id="svg_61" stroke="#000000" transform="rotate(-2.05788 159.86 131.695)" x1="158.72" x2="161" y1="130.39" y2="133"/>
  <line fill="none" id="svg_62" stroke="#000000" x1="151.76" x2="147.63" y1="127.89" y2="132.02"/>
  <line fill="none" id="svg_63" stroke="#000000" x1="157.09" x2="146.76" y1="137.46" y2="127.67"/>
  <line fill="none" id="svg_64" stroke="#000000" x1="135.57" x2="151.87" y1="139.24" y2="123.15"/>
  <line fill="none" id="svg_65" stroke="#000000" x1="152.74" x2="149.91" y1="141.74" y2="138.91"/>
  <line fill="none" id="svg_66" stroke="#000000" x1="142.85" x2="145.78" y1="131.85" y2="134.89"/>
  <line fill="none" id="svg_67" stroke="#000000" x1="156.22" x2="152.63" y1="132.93" y2="136.63"/>
  <line fill="none" id="svg_68" stroke="#000000" x1="139.96" x2="177.13" y1="154.28" y2="193.09"/>
  <line fill="none" id="svg_69" stroke="#000000" x1="124.63" x2="170.28" y1="169.07" y2="215.48"/>
  <line fill="none" id="svg_70" stroke="#000000" transform="matrix(1 0 0 1 0 0)" x1="194.99" x2="169.66" y1="215.26" y2="215.26"/>
  <line fill="none" id="svg_73" stroke="#000000" transform="rotate(4.01852 132.098 142.362)" x1="133.29" x2="130.9" y1="141.01" y2="143.72"/>
  <line fill="none" id="svg_74" stroke="#000000" transform="rotate(0.650379 135.5 148.64)" x1="140.72" x2="130.28" y1="153.8" y2="143.48"/>
  <line fill="none" id="svg_75" stroke="#000000" transform="matrix(1 0 0 1 0 0) rotate(1 176 143.15)" x1="177.2" x2="175.45" y1="200.65" y2="85.65"/>
  <line fill="none" id="svg_76" stroke="#000000" transform="rotate(1 205.49 86.19)" x1="235.03" x2="175.95" y1="85.82" y2="86.57"/>
  <line fill="none" id="svg_77" stroke="#000000" transform="matrix(1 0 0 1 0 0)" x1="235.6" x2="234.6" y1="262.07" y2="86.4"/>
  <line fill="none" id="svg_78" stroke="#000000" x1="176.26" x2="176.6" y1="206.67" y2="262.5"/>
  <line fill="none" id="svg_79" stroke="#000000" x1="176.64" x2="194.76" y1="97.62" y2="97.72"/>
  <line fill="none" id="svg_80" stroke="#000000" transform="rotate(0.692645 185.54 108.62)" x1="176.34" x2="194.74" y1="108.82" y2="108.42"/>
  <line fill="none" id="svg_81" stroke="#000000" x1="194.24" x2="194.34" y1="103.42" y2="97.82"/>
  <line fill="none" id="svg_82" stroke="#000000" transform="rotate(0.361696 200.54 101.837)" x1="200.49" x2="200.59" y1="86.24" y2="117.44"/>
  <line fill="none" id="svg_83" stroke="#000000" transform="rotate(-0.638283 185.34 119.23)" x1="176.34" x2="194.34" y1="119.08" y2="119.38"/>
  <line fill="none" id="svg_84" stroke="#000000" transform="rotate(-3.17287 194.223 110.547)" x1="194.12" x2="194.32" y1="113.05" y2="108.05"/>
  <line fill="none" id="svg_85" stroke="#000000" transform="rotate(2.69441 200.423 125.27)" x1="200.22" x2="200.62" y1="120.52" y2="130.02"/>
  <line fill="none" id="svg_86" stroke="#000000" transform="rotate(-0.742343 185.84 129.82)" x1="175.94" x2="195.74" y1="129.72" y2="129.92"/>
  <line fill="none" id="svg_87" stroke="#000000" transform="matrix(1 0 0 1 0 0)" x1="176.34" x2="195.84" y1="145.02" y2="145.12"/>
  <line fill="none" id="svg_88" stroke="#000000" transform="rotate(0.870385 188.332 150.967)" x1="200.72" x2="175.94" y1="150.82" y2="151.12"/>
  <line fill="none" id="svg_89" stroke="#000000" transform="matrix(1 0 0 1 0 0)" x1="200.41" x2="200.41" y1="129.95" y2="150.85"/>
  <line fill="none" id="svg_90" stroke="#000000" x1="210.64" x2="210.74" y1="94.58" y2="133.78"/>
  <line fill="none" id="svg_91" stroke="#000000" transform="rotate(2.9929 201.54 97.52)" x1="202.74" x2="200.34" y1="97.42" y2="97.62"/>
  <line fill="none" id="svg_92" stroke="#000000" x1="207.64" x2="234.44" y1="97.32" y2="97.42"/>
  <line fill="none" id="svg_93" stroke="#000000" x1="216.36" x2="234.34" y1="107.88" y2="108.18"/>
  <line fill="none" id="svg_94" stroke="#000000" x1="216.74" x2="234.34" y1="118.86" y2="118.96"/>
  <line fill="none" id="svg_95" stroke="#000000" transform="matrix(1 0 0 1 0 0)" x1="216.74" x2="216.64" y1="113.86" y2="107.76"/>
  <line fill="none" id="svg_96" stroke="#000000" transform="rotate(-2.06908 216.84 121.86)" x1="216.74" x2="216.94" y1="125.16" y2="118.56"/>
  <line fill="none" id="svg_97" stroke="#000000" x1="216.84" x2="234.34" y1="129.06" y2="129.36"/>
  <line fill="none" id="svg_98" stroke="#000000" x1="216.74" x2="216.74" y1="133.88" y2="140.48"/>
  <line fill="none" id="svg_99" stroke="#000000" x1="234.64" x2="217.14" y1="139.78" y2="139.78"/>
  <line fill="none" id="svg_100" stroke="#000000" transform="matrix(1 0 0 1 0 0)" x1="213.94" x2="216.94" y1="144.82" y2="144.72"/>
  <line fill="none" id="svg_101" stroke="#000000" x1="210.54" x2="234.74" y1="150.82" y2="150.52"/>
  <line fill="none" id="svg_102" stroke="#000000" x1="210.74" x2="210.84" y1="137.32" y2="150.42"/>
  <line fill="none" id="svg_103" stroke="#000000" x1="216.74" x2="216.84" y1="152.96" y2="144.36"/>
  <line fill="none" id="svg_104" stroke="#000000" transform="rotate(1.47448 188.59 161.63)" x1="176.54" x2="200.64" y1="161.88" y2="161.38"/>
  <line fill="none" id="svg_105" stroke="#000000" transform="rotate(-1.41895 200.44 153.98)" x1="200.34" x2="200.54" y1="157.18" y2="150.78"/>
  <line fill="none" id="svg_106" points="null" stroke="#000000" transform="rotate(2.76442 200.54 163.22)" x1="200.63" x2="200.45" y1="165.22" y2="161.22"/>
  <line fill="none" id="svg_107" stroke="#000000" x1="210.74" x2="210.74" y1="155.82" y2="186.82"/>
  <line fill="none" id="svg_108" stroke="#000000" x1="235.14" x2="210.54" y1="171.52" y2="171.72"/>
  <line fill="none" id="svg_109" stroke="#000000" transform="matrix(1 0 0 1 0 0)" x1="210.74" x2="212.74" y1="161.52" y2="161.52"/>
  <line fill="none" id="svg_110" stroke="#000000" transform="matrix(1 0 0 1 0 0)" x1="216.94" x2="216.94" y1="156.22" y2="161.52"/>
  <line fill="none" id="svg_111" stroke="#000000" x1="235.04" x2="215.64" y1="161.02" y2="161.12"/>
  <line fill="none" id="svg_112" stroke="#000000" x1="200.89" x2="176.84" y1="192.42" y2="192.62"/>
  <line fill="none" id="svg_113" stroke="#000000" transform="rotate(0.340747 200.49 180.82)" x1="200.34" x2="200.64" y1="169.62" y2="192.02"/>
  <line fill="none" id="svg_115" stroke="#000000" transform="rotate(0.903821 210.807 198.83)" x1="210.61" x2="211.01" y1="189.83" y2="207.83"/>
  <line fill="none" id="svg_116" stroke="#000000" x1="234.84" x2="210.34" y1="192.98" y2="193.28"/>
  <line fill="none" id="svg_117" stroke="#000000" x1="210.34" x2="235.34" y1="214.42" y2="214.52"/>
  <line fill="none" id="svg_118" stroke="#000000" x1="210.94" x2="210.94" y1="219.72" y2="230.62"/>
  <line fill="none" id="svg_119" stroke="#000000" x1="228.54" x2="228.44" y1="220.32" y2="228.72"/>
  <line fill="none" id="svg_120" stroke="#000000" x1="231.94" x2="231.84" y1="220.02" y2="228.72"/>
  <line fill="none" id="svg_124" stroke="#000000" transform="matrix(1 0 0 1 0 0)" x1="214.74" x2="218.74" y1="219.42" y2="219.52"/>
  <line fill="none" id="svg_125" stroke="#000000" x1="218.54" x2="218.34" y1="231.12" y2="219.12"/>
  <line fill="none" id="svg_126" stroke="#000000" x1="214.84" x2="218.44" y1="230.72" y2="230.62"/>
  <line fill="none" id="svg_128" stroke="#000000" transform="matrix(1 0 0 1 0 0)" x1="210.54" x2="235.24" y1="224.96" y2="225.06"/>
  <line fill="none" id="svg_129" stroke="#000000" x1="225.64" x2="225.64" y1="220.16" y2="224.86"/>
  <line fill="none" id="svg_131" stroke="#000000" transform="rotate(-1.15435 199.857 215.287)" x1="198.11" x2="201.61" y1="215.24" y2="215.34"/>
  <line fill="none" id="svg_132" stroke="#000000" x1="201.54" x2="201.44" y1="236.1" y2="214.9"/>
  <line fill="none" id="svg_133" stroke="#000000" x1="176.22" x2="201.14" y1="224.92" y2="224.82"/>
  <line fill="none" id="svg_134" stroke="#000000" transform="rotate(1.97334 187.64 228.01)" x1="187.74" x2="187.54" y1="231.46" y2="224.56"/>
  <line fill="none" id="svg_135" stroke="#000000" transform="rotate(0.334124 178.64 235.793)" x1="176.44" x2="180.84" y1="235.84" y2="235.74"/>
  <line fill="none" id="svg_136" stroke="#000000" x1="184.44" x2="201.14" y1="235.76" y2="235.76"/>
  <line fill="none" id="svg_137" stroke="#000000" x1="201.61" x2="201.81" y1="242.77" y2="261.97"/>
  <line fill="none" id="svg_138" stroke="#000000" x1="210.74" x2="235.54" y1="236.18" y2="235.78"/>
  <line fill="none" id="svg_139" stroke="#000000" x1="211.54" x2="234.74" y1="246.18" y2="245.98"/>
  <line fill="none" id="svg_141" stroke="#000000" x1="326.15" x2="175.98" y1="455.6" y2="454.6"/>
  <line fill="none" id="svg_142" stroke="#000000" transform="rotate(0.513135 325.395 423.181)" x1="324.89" x2="325.89" y1="391.26" y2="455.1"/>
  <line fill="none" id="svg_144" stroke="#000000" x1="306.9" x2="306.9" y1="343" y2="391.67"/>
  <line fill="none" id="svg_145" stroke="#000000" x1="176.86" x2="202.18" y1="422.4" y2="422.5"/>
  <line fill="none" id="svg_146" stroke="#000000" transform="rotate(-0.943812 189.73 412.2)" x1="176.88" x2="202.58" y1="412" y2="412.4"/>
  <line fill="none" id="svg_147" stroke="#000000" transform="matrix(1 0 0 1 0 0)" x1="201.8" x2="201.9" y1="422.62" y2="416.42"/>
  <line fill="none" id="svg_148" stroke="#000000" x1="176.58" x2="202.85" y1="400.98" y2="401.18"/>
  <line fill="none" id="svg_149" stroke="#000000" x1="202.23" x2="202.33" y1="406.7" y2="401.2"/>
  <line fill="none" id="svg_150" stroke="#000000" x1="194.18" x2="194.18" y1="407.08" y2="400.88"/>
  <line fill="none" id="svg_151" stroke="#000000" x1="198.96" x2="193.76" y1="406.53" y2="406.63"/>
  <line fill="none" id="svg_152" stroke="#000000" transform="matrix(1 0 0 1 0 0) rotate(-1.96313 198.18 401.13)" x1="198.08" x2="198.28" y1="403.38" y2="398.88"/>
  <line fill="none" id="svg_153" stroke="#000000" x1="194.18" x2="194.18" y1="390.48" y2="401.18"/>
  <line fill="none" id="svg_154" stroke="#000000" transform="matrix(1 0 0 1 0 0) rotate(-1.91235 184.23 398.73)" x1="184.28" x2="184.18" y1="396.98" y2="400.48"/>
  <line fill="none" id="svg_155" stroke="#000000" transform="rotate(-4.00871 181.28 398.93)" x1="181.18" x2="181.38" y1="400.98" y2="396.88"/>
  <line fill="none" id="svg_156" stroke="#000000" transform="rotate(-1.4223 190.63 396.85)" x1="187.48" x2="193.78" y1="396.8" y2="396.9"/>
  <line fill="none" id="svg_157" stroke="#000000" x1="176.4" x2="202.7" y1="386.47" y2="386.77"/>
  <line fill="none" id="svg_158" stroke="#000000" x1="202.38" x2="202.48" y1="400.9" y2="390.7"/>
  <line fill="none" id="svg_159" stroke="#000000" transform="rotate(2.0186 196.08 395.25)" x1="193.78" x2="198.38" y1="395.3" y2="395.2"/>
  <line fill="none" id="svg_160" stroke="#000000" transform="matrix(1 0 0 1 0 0)" x1="176.68" x2="202.08" y1="432.84" y2="433.14"/>
  <path d="m213.8,418.29c-0.1,-0.34 -0.1,-1.23 -0.1,-2.12c0,-0.89 0.02,-1.77 0.12,-2.59c0.1,-0.86 0.1,-1.72 0.18,-2.61c0.08,-0.84 0.48,-1.63 0.7,-2.43c0.23,-0.82 0.58,-1.61 1.08,-2.34c0.5,-0.73 1.06,-1.4 1.62,-2.03c0.57,-0.64 1.16,-1.18 1.92,-1.59c0.73,-0.39 1.51,-0.66 2.32,-0.89l0.84,-0.18" fill="none" id="svg_175" stroke="#000000"/>
  <path d="m213.35,434.1c0.09,0.98 0.11,1.87 0.3,2.69c0.2,0.85 0.43,1.62 0.86,2.31c0.42,0.69 0.87,1.43 1.5,1.92c0.65,0.51 1.23,0.97 1.89,1.38c0.65,0.41 1.34,0.95 2.14,1.2c0.8,0.25 1.6,0.46 2.42,0.69l0.83,0.11l0.86,0l0.87,0" fill="none" id="svg_176" stroke="#000000"/>
  <line fill="none" id="svg_177" stroke="#000000" x1="213.38" x2="213.38" y1="427.14" y2="435.24"/>
  <line fill="none" id="svg_178" stroke="#000000" transform="matrix(1 0 0 1 0 0) rotate(-2.37168 217.38 422.94)" x1="213.78" x2="220.98" y1="422.74" y2="423.14"/>
  <line fill="none" id="svg_179" stroke="#000000" transform="matrix(1 0 0 1 0 0)" x1="224.18" x2="227.18" y1="423.04" y2="423.04"/>
  <line fill="none" id="svg_180" stroke="#000000" x1="226.68" x2="226.68" y1="439.14" y2="407.44"/>
  <line fill="none" id="svg_181" stroke="#000000" x1="225.08" x2="243.28" y1="444.44" y2="445.24"/>
  <line fill="none" id="svg_182" stroke="#000000" x1="242.88" x2="242.88" y1="448.4" y2="444.6"/>
  <line fill="none" id="svg_183" stroke="#000000" transform="rotate(-3.02838 232.73 401.28)" x1="222.18" x2="243.28" y1="400.98" y2="401.58"/>
  <line fill="none" id="svg_184" stroke="#000000" x1="243.08" x2="243.18" y1="398.18" y2="401.38"/>
  <line fill="none" id="svg_185" stroke="#000000" transform="matrix(1 0 0 1 0 0)" x1="202.08" x2="209.38" y1="386.78" y2="386.98"/>
  <line fill="none" id="svg_186" stroke="#000000" x1="214.28" x2="243.13" y1="386.98" y2="387.28"/>
  <line fill="none" id="svg_187" stroke="#000000" x1="242.58" x2="242.58" y1="379.45" y2="386.98"/>
  <line fill="none" id="svg_188" stroke="#000000" x1="220.98" x2="220.98" y1="375.68" y2="379.58"/>
  <line fill="none" id="svg_189" stroke="#000000" x1="242.58" x2="220.58" y1="379.78" y2="379.68"/>
  <line fill="none" id="svg_190" stroke="#000000" x1="220.78" x2="220.88" y1="355.14" y2="370.24"/>
  <line fill="none" id="svg_191" stroke="#000000" transform="rotate(-1.19416 190.03 336.34)" x1="176.38" x2="203.68" y1="336.14" y2="336.54"/>
  <line fill="none" id="svg_192" stroke="#000000" x1="176.58" x2="203.41" y1="343.44" y2="343.34"/>
  <line fill="none" id="svg_193" stroke="#000000" x1="203.51" x2="203.51" y1="340.41" y2="343.41"/>
  <line fill="none" id="svg_194" stroke="#000000" x1="176.98" x2="201.38" y1="262.1" y2="262.4"/>
  <line fill="none" id="svg_195" stroke="#000000" transform="matrix(1 0 0 1 0 0)" x1="201.38" x2="201.98" y1="286.54" y2="313.64"/>
  <line fill="none" id="svg_196" stroke="#000000" transform="rotate(-0.354129 176.58 419.91)" x1="176.32" x2="176.84" y1="454.21" y2="385.61"/>
  <line fill="none" id="svg_197" stroke="#000000" x1="176.84" x2="176.67" y1="335.96" y2="386.14"/>
  <path d="m188.59,331.9c-0.55,-0.79 -1.1,-1.42 -1.6,-2.13c-0.49,-0.7 -1.12,-1.3 -1.57,-2.01c-0.48,-0.74 -0.85,-1.54 -1.23,-2.33c-0.37,-0.77 -0.74,-1.57 -1.12,-2.33c-0.41,-0.82 -0.89,-1.56 -1.28,-2.37c-0.37,-0.77 -0.74,-1.58 -1.13,-2.4c-0.37,-0.78 -0.69,-1.57 -0.97,-2.34c-0.29,-0.78 -0.7,-1.58 -1,-2.4l-0.2,-0.86l-0.29,-0.83l-0.21,-0.81" fill="none" id="svg_198" stroke="#000000"/>
  <line fill="none" id="svg_199" stroke="#000000" x1="188.54" x2="188.54" y1="336.44" y2="331.54"/>
  <line fill="none" id="svg_200" stroke="#000000" transform="matrix(1 0 0 1 0 0)" x1="177.54" x2="177.34" y1="303.84" y2="294.24"/>
  <line fill="none" id="svg_201" stroke="#000000" x1="177.54" x2="184.54" y1="287.14" y2="287.24"/>
  <line fill="none" id="svg_202" stroke="#000000" transform="matrix(1 0 0 1 0 0)" x1="177.64" x2="184.94" y1="311.14" y2="311.14"/>
  <line fill="none" id="svg_203" stroke="#000000" x1="184.34" x2="184.44" y1="294.44" y2="304.74"/>
  <line fill="none" id="svg_204" stroke="#000000" transform="rotate(-1.59151 184.007 288.857)" x1="184.06" x2="183.96" y1="287.11" y2="290.61"/>
  <line fill="none" id="svg_205" stroke="#000000" x1="184.51" x2="184.51" y1="311.39" y2="309.39"/>
  <line fill="none" id="svg_206" stroke="#000000" transform="matrix(1 0 0 1 0 0)" x1="201.74" x2="201.84" y1="261.54" y2="277.84"/>
  <line fill="none" id="svg_207" stroke="#000000" x1="181.44" x2="194.34" y1="277.54" y2="277.64"/>
  <line fill="none" id="svg_208" stroke="#000000" transform="rotate(3.1915 200.723 277.59)" x1="199.47" x2="201.97" y1="277.69" y2="277.49"/>
  <path d="m191.54,262.14c-0.75,0.44 -1.23,1.07 -1.69,1.78c-0.47,0.72 -0.96,1.43 -1.44,2.14c-0.51,0.76 -0.98,1.48 -1.5,2.2c-0.5,0.7 -1.06,1.37 -1.56,2.07c-0.49,0.7 -0.94,1.42 -1.46,2.15c-0.52,0.72 -1,1.45 -1.47,2.21c-0.43,0.7 -0.85,1.47 -1.23,2.25c-0.39,0.77 -0.69,1.58 -0.98,2.42c-0.29,0.85 -0.61,1.68 -0.86,2.55c-0.24,0.84 -0.41,1.72 -0.5,2.62l-0.27,0.83l-0.2,0.83" fill="none" id="svg_209" stroke="#000000"/>
  <polyline fill="none" id="svg_210" points="178.04 287.14 178.283 286.347" stroke="#000000" stroke-linecap="round" transform="matrix(1 0 0 1 0 0)"/>
  <line fill="none" id="svg_211" stroke="#000000" x1="221.94" x2="221.94" y1="286.74" y2="300.74"/>
  <line fill="none" id="svg_212" stroke="#000000" x1="221.84" x2="221.94" y1="305.49" y2="311.99"/>
  <line fill="none" id="svg_213" stroke="#000000" transform="rotate(-2.46134 225.89 287.29)" x1="221.84" x2="229.94" y1="287.04" y2="287.54"/>
  <line fill="none" id="svg_214" stroke="#000000" transform="matrix(1 0 0 1 0 0)" x1="221.74" x2="242.54" y1="295.54" y2="295.64"/>
  <line fill="none" id="svg_215" stroke="#000000" x1="232.94" x2="242.24" y1="287.34" y2="287.44"/>
  <line fill="none" id="svg_216" stroke="#000000" transform="rotate(1.75436 242.29 299.74)" x1="242.84" x2="241.74" y1="312.34" y2="287.14"/>
  <line fill="none" id="svg_217" stroke="#000000" x1="221.71" x2="242.66" y1="311.76" y2="312.26"/>
  <line fill="none" id="svg_218" stroke="#000000" x1="203.44" x2="203.04" y1="343.34" y2="378.24"/>
  <line fill="none" id="svg_219" stroke="#000000" transform="matrix(1 0 0 1 0 0)" x1="242.74" x2="242.84" y1="361.12" y2="374.22"/>
  <line fill="none" id="svg_220" stroke="#000000" x1="220.84" x2="246.94" y1="364.42" y2="364.62"/>
  <line fill="none" id="svg_221" stroke="#000000" transform="rotate(-4.13914 253.49 364.67)" x1="251.24" x2="255.74" y1="364.52" y2="364.82"/>
  <line fill="none" id="svg_222" stroke="#000000" x1="259.24" x2="264.84" y1="364.42" y2="364.42"/>
  <line fill="none" id="svg_223" stroke="#000000" transform="matrix(1 0 0 1 0 0)" x1="220.94" x2="242.74" y1="355.42" y2="355.62"/>
  <line fill="none" id="svg_224" stroke="#000000" x1="243.04" x2="242.94" y1="343.52" y2="357.22"/>
  <line fill="none" id="svg_225" stroke="#000000" transform="matrix(1 0 0 1 0 0)" x1="176.74" x2="187.74" y1="446.34" y2="446.44"/>
  <line fill="none" id="svg_226" stroke="#000000" transform="matrix(1 0 0 1 0 0)" x1="192.04" x2="202.34" y1="446.64" y2="446.74"/>
  <line fill="none" id="svg_227" stroke="#000000" x1="201.76" x2="201.76" y1="454.19" y2="446.81"/>
  <line fill="none" id="svg_228" stroke="#000000" transform="matrix(1 0 0 1 0 0)" x1="221.36" x2="221.46" y1="387.18" y2="392.28"/>
  <line fill="none" id="svg_229" stroke="#000000" x1="232.26" x2="232.36" y1="387.38" y2="392.78"/>
  <line fill="none" id="svg_230" stroke="#000000" x1="227.56" x2="221.06" y1="391.98" y2="392.08"/>
  <line fill="none" id="svg_231" stroke="#000000" transform="matrix(1 0 0 1 0 0)" x1="236.46" x2="307.36" y1="392.18" y2="392.18"/>
  <line fill="none" id="svg_232" stroke="#000000" x1="325.48" x2="306.78" y1="391.74" y2="392.14"/>
  <line fill="none" id="svg_233" stroke="#000000" x1="221.9" x2="306.5" y1="343.08" y2="343.58"/>
  <line fill="none" id="svg_234" stroke="#000000" x1="221.7" x2="256.4" y1="335.78" y2="335.98"/>
  <line fill="none" id="svg_235" stroke="#000000" x1="242.5" x2="242.6" y1="311.84" y2="335.54"/>
  <line fill="none" id="svg_236" stroke="#000000" x1="242.9" x2="260.8" y1="326.84" y2="327.14"/>
  <line fill="none" id="svg_237" points="null" stroke="#000000" x1="260.34" x2="260.36" y1="336.11" y2="326.74"/>
  <line fill="none" id="svg_238" stroke="#000000" transform="matrix(1 0 0 1 0 0)" x1="266.6" x2="260.8" y1="335.64" y2="335.74"/>
  <line fill="none" id="svg_239" stroke="#000000" x1="269.6" x2="278.3" y1="335.84" y2="335.94"/>
  <line fill="none" id="svg_240" stroke="#000000" transform="rotate(1.47607 271.95 329.39)" x1="271.8" x2="272.1" y1="323.24" y2="335.54"/>
  <line fill="none" id="svg_241" points="null" stroke="#000000" transform="rotate(1.78452 262.95 326.94)" x1="266.1" x2="259.8" y1="326.92" y2="326.96"/>
  <line fill="none" id="svg_242" stroke="#000000" x1="269" x2="271.6" y1="326.74" y2="326.74"/>
  <line fill="none" id="svg_243" stroke="#000000" x1="242.03" x2="242.13" y1="271.63" y2="287.33"/>
  <line fill="none" id="svg_244" stroke="#000000" transform="matrix(1 0 0 1 0 0)" x1="272.33" x2="242.23" y1="271.91" y2="272.01"/>
  <line fill="none" id="svg_245" stroke="#000000" transform="matrix(1 0 0 1 0 0)" x1="272.34" x2="277.64" y1="329.42" y2="329.52"/>
  <line fill="none" id="svg_246" stroke="#000000" x1="277.54" x2="272.04" y1="324.42" y2="324.32"/>
  <line fill="none" id="svg_247" stroke="#000000" transform="rotate(2.64173 271.69 315.28)" x1="271.54" x2="271.84" y1="311.08" y2="319.48"/>
  <line fill="none" id="svg_248" stroke="#000000" transform="matrix(1 0 0 1 0 0)" x1="277.24" x2="271.64" y1="318.88" y2="318.88"/>
  <line fill="none" id="svg_249" stroke="#000000" x1="283.74" x2="283.64" y1="310.98" y2="319.08"/>
  <line fill="none" id="svg_250" stroke="#000000" x1="279.84" x2="283.34" y1="318.78" y2="318.78"/>
  <line fill="none" id="svg_251" stroke="#000000" x1="243.04" x2="256.24" y1="310.88" y2="310.88"/>
  <line fill="none" id="svg_252" stroke="#000000" x1="259.84" x2="308.64" y1="310.98" y2="311.28"/>
  <line fill="none" id="svg_253" stroke="#000000" x1="292.24" x2="292.24" y1="318.18" y2="311.08"/>
  <line fill="none" id="svg_254" stroke="#000000" transform="matrix(1 0 0 1 0 0)" x1="283.94" x2="292.74" y1="323.88" y2="323.78"/>
  <line fill="none" id="svg_255" stroke="#000000" x1="283.84" x2="284.04" y1="338.18" y2="328.38"/>
  <line fill="none" id="svg_256" stroke="#000000" transform="rotate(-1.77203 286.64 326.38)" x1="286.54" x2="286.74" y1="328.58" y2="324.18"/>
  <line fill="none" id="svg_257" stroke="#000000" x1="283.94" x2="286.24" y1="328.58" y2="328.48"/>
  <line fill="none" id="svg_258" stroke="#000000" x1="296.04" x2="296.24" y1="323.62" y2="342.92"/>
  <line fill="none" id="svg_259" stroke="#000000" x1="305.44" x2="305.54" y1="336.08" y2="343.48"/>
  <line fill="none" id="svg_260" stroke="#000000" x1="323.84" x2="323.94" y1="337.35" y2="343.85"/>
  <line fill="none" id="svg_261" stroke="#000000" transform="rotate(-2.17399 335.829 331.738)" x1="323.54" x2="348.12" y1="331.39" y2="332.09"/>
  <line fill="none" id="svg_262" stroke="#000000" x1="313.14" x2="323.36" y1="310.98" y2="311.18"/>
  <line fill="none" id="svg_263" stroke="#000000" x1="323.14" x2="323.14" y1="316.58" y2="311.08"/>
  <line fill="none" id="svg_264" stroke="#000000" transform="rotate(-1.10152 329.373 323.109)" x1="322.87" x2="335.87" y1="323.01" y2="323.21"/>
  <line fill="none" id="svg_265" stroke="#000000" transform="rotate(0.311647 335.54 327.28)" x1="335.64" x2="335.44" y1="331.68" y2="322.88"/>
  <line fill="none" id="svg_266" stroke="#000000" transform="matrix(1 0 0 1 0 0)" x1="323.14" x2="323.14" y1="325.66" y2="320.56"/>
  <line fill="none" id="svg_270" stroke="#000000" x1="329.44" x2="341.14" y1="311.28" y2="311.28"/>
  <line fill="none" id="svg_271" stroke="#000000" transform="rotate(1.72817 347.907 321.18)" x1="348.26" x2="347.56" y1="331.58" y2="310.78"/>
  <line fill="none" id="svg_272" stroke="#000000" x1="344.94" x2="348.04" y1="311.08" y2="311.08"/>
  <line fill="none" id="svg_273" stroke="#000000" transform="matrix(1 0 0 1 0 0)" x1="275.74" x2="308.94" y1="272.32" y2="272.32"/>
  <line fill="none" id="svg_274" stroke="#000000" transform="matrix(1 0 0 1 0 0)" x1="281.04" x2="280.94" y1="272.52" y2="276.42"/>
  <line fill="none" id="svg_275" stroke="#000000" x1="281.14" x2="308.54" y1="279.52" y2="279.62"/>
  <line fill="none" id="svg_276" stroke="#000000" x1="308.64" x2="308.74" y1="275.72" y2="272.22"/>
  <line fill="none" id="svg_277" stroke="#000000" transform="rotate(0.24711 311.257 272.287)" x1="316.01" x2="306.51" y1="272.19" y2="272.39"/>
  <line fill="none" id="svg_278" stroke="#000000" transform="matrix(1 0 0 1 0 0)" x1="320.54" x2="347.44" y1="272.02" y2="271.62"/>
  <line fill="none" id="svg_279" stroke="#000000" transform="rotate(1.14646 347.74 292.42)" x1="347.14" x2="348.34" y1="271.42" y2="313.42"/>
  <line fill="none" id="svg_280" stroke="#000000" x1="323.14" x2="322.94" y1="301.02" y2="286.42"/>
  <line fill="none" id="svg_281" stroke="#000000" x1="235.54" x2="310.74" y1="261.92" y2="260.82"/>
  <line fill="none" id="svg_282" stroke="#000000" x1="219.46" x2="226.76" y1="253.04" y2="253.14"/>
  <line fill="none" id="svg_283" stroke="#000000" x1="227.26" x2="227.26" y1="257.94" y2="246.34"/>
  <line fill="none" id="svg_284" stroke="#000000" x1="231.16" x2="231.06" y1="262.07" y2="251.54"/>
  <line fill="none" id="svg_286" stroke="#000000" x1="210.76" x2="210.76" y1="256.74" y2="261.74"/>
  <line fill="none" id="svg_287" stroke="#000000" x1="230.96" x2="210.26" y1="261.74" y2="261.74"/>
  <line fill="none" id="svg_288" stroke="#000000" x1="308.9" x2="310.4" y1="91.7" y2="260.7"/>
  <line fill="none" id="svg_289" stroke="#000000" transform="rotate(0.556778 365.9 178.992)" x1="364.9" x2="366.9" y1="100.7" y2="257.28"/>
  <line fill="none" id="svg_290" stroke="#000000" x1="347.54" x2="347.24" y1="271.79" y2="256.72"/>
  <line fill="none" id="svg_291" stroke="#000000" x1="339.74" x2="366.64" y1="257.04" y2="256.84"/>
  <line fill="none" id="svg_292" stroke="#000000" x1="319.74" x2="325.84" y1="256.84" y2="256.94"/>
  <line fill="none" id="svg_293" stroke="#000000" x1="325.54" x2="325.44" y1="260.34" y2="252.79"/>
  <line fill="none" id="svg_294" stroke="#000000" x1="310.24" x2="333.34" y1="246.24" y2="246.44"/>
  <line fill="none" id="svg_295" stroke="#000000" transform="rotate(1.05333 333.431 251.589)" x1="333.58" x2="333.28" y1="257.19" y2="245.99"/>
  <line fill="none" id="svg_296" stroke="#000000" transform="matrix(1 0 0 1 0 0)" x1="319.04" x2="318.84" y1="253.54" y2="246.24"/>
  <line fill="none" id="svg_297" stroke="#000000" x1="319.04" x2="325.04" y1="253.14" y2="253.04"/>
  <line fill="none" id="svg_298" stroke="#000000" transform="rotate(1.85799 315.798 258.26)" x1="315.62" x2="315.97" y1="255.61" y2="260.91"/>
  <line fill="none" id="svg_299" stroke="#000000" x1="325.54" x2="315.84" y1="260.16" y2="260.26"/>
  <line fill="none" id="svg_300" stroke="#000000" transform="rotate(1.1016 343.04 230.34)" x1="343.34" x2="342.74" y1="245.74" y2="214.94"/>
  <line fill="none" id="svg_301" stroke="#000000" x1="366.34" x2="342.74" y1="214.84" y2="214.94"/>
  <line fill="none" id="svg_302" stroke="#000000" x1="333.46" x2="309.84" y1="215.14" y2="215.24"/>
  <line fill="none" id="svg_303" stroke="#000000" transform="rotate(0.296598 333.24 225.64)" x1="333.14" x2="333.34" y1="220.24" y2="231.04"/>
  <line fill="none" id="svg_304" stroke="#000000" transform="rotate(1.59928 325.74 225.69)" x1="325.54" x2="325.94" y1="219.24" y2="232.14"/>
  <line fill="none" id="svg_305" stroke="#000000" transform="rotate(3.64156 327.84 220.84)" x1="330.14" x2="325.54" y1="220.74" y2="220.94"/>
  <line fill="none" id="svg_306" stroke="#000000" x1="330.34" x2="326.14" y1="231.14" y2="231.14"/>
  <line fill="none" id="svg_307" stroke="#000000" transform="rotate(2.07217 314.09 225.64)" x1="313.94" x2="314.24" y1="221.34" y2="229.94"/>
  <line fill="none" id="svg_308" points="null" stroke="#000000" x1="309.94" x2="332.96" y1="225.64" y2="225.74"/>
  <line fill="none" id="svg_309" stroke="#000000" x1="317.14" x2="317.04" y1="229.54" y2="221.74"/>
  <line fill="none" id="svg_310" stroke="#000000" x1="319.54" x2="319.64" y1="221.84" y2="225.74"/>
  <line fill="none" id="svg_311" stroke="#000000" x1="310.64" x2="333.84" y1="236.56" y2="236.36"/>
  <line fill="none" id="svg_312" stroke="#000000" x1="317.14" x2="317.14" y1="233.46" y2="236.26"/>
  <line fill="none" id="svg_314" stroke="#000000" x1="315.94" x2="316.04" y1="236.76" y2="241.66"/>
  <line fill="none" id="svg_315" stroke="#000000" transform="matrix(1 0 0 1 0 0)" x1="309.94" x2="333.44" y1="194.7" y2="194.6"/>
  <line fill="none" id="svg_316" stroke="#000000" x1="343.04" x2="343.14" y1="199.46" y2="209.16"/>
  <line fill="none" id="svg_317" stroke="#000000" x1="365.94" x2="343.04" y1="204.76" y2="204.96"/>
  <line fill="none" id="svg_318" stroke="#000000" transform="rotate(-0.739466 342.94 177.34)" x1="343.09" x2="342.79" y1="158.84" y2="195.84"/>
  <line fill="none" id="svg_319" stroke="#000000" transform="rotate(-1.31883 357.24 174.323)" x1="348.59" x2="365.89" y1="174.17" y2="174.47"/>
  <line fill="none" id="svg_320" stroke="#000000" transform="rotate(0.93726 356.49 163.76)" x1="347.64" x2="365.34" y1="163.96" y2="163.56"/>
  <line fill="none" id="svg_321" points="null" stroke="#000000" transform="rotate(0.636005 342.757 143.667)" x1="342.62" x2="342.89" y1="133.37" y2="153.97"/>
  <line fill="none" id="svg_322" stroke="#000000" transform="rotate(1.62102 353.79 133.4)" x1="365.24" x2="342.34" y1="133.1" y2="133.7"/>
  <line fill="none" id="svg_323" stroke="#000000" transform="rotate(0.833476 320.981 133.597)" x1="308.94" x2="333.02" y1="133.9" y2="133.3"/>
  <line fill="none" id="svg_324" stroke="#000000" x1="309.34" x2="328.64" y1="154.44" y2="154.44"/>
  <line fill="none" id="svg_325" stroke="#000000" transform="matrix(1 0 0 1 0 0)" x1="332.67" x2="332.77" y1="154.43" y2="175.93"/>
  <line fill="none" id="svg_326" stroke="#000000" x1="309.54" x2="327.54" y1="175.1" y2="175"/>
  <line fill="none" id="svg_327" stroke="#000000" x1="309.64" x2="332.52" y1="164.9" y2="164.6"/>
  <line fill="none" id="svg_328" stroke="#000000" x1="332.99" x2="332.99" y1="194.73" y2="204.83"/>
  <line fill="none" id="svg_329" stroke="#000000" x1="332.94" x2="332.84" y1="214.8" y2="207.5"/>
  <line fill="none" id="svg_330" stroke="#000000" x1="332.89" x2="332.99" y1="180.43" y2="194.63"/>
  <line fill="none" id="svg_331" stroke="#000000" x1="332.56" x2="332.66" y1="140.14" y2="154.44"/>
  <line fill="none" id="svg_332" stroke="#000000" x1="342.59" x2="342.69" y1="120.14" y2="133.84"/>
  <line fill="none" id="svg_333" stroke="#000000" x1="332.64" x2="332.74" y1="120.46" y2="133.16"/>
  <line fill="none" id="svg_334" stroke="#000000" x1="308.74" x2="327.54" y1="113.16" y2="113.06"/>
  <line fill="none" id="svg_335" stroke="#000000" transform="rotate(0.408483 332.69 109.76)" x1="332.64" x2="332.74" y1="102.36" y2="117.16"/>
  <line fill="none" id="svg_336" stroke="#000000" x1="308.84" x2="334.74" y1="102.66" y2="102.46"/>
  <line fill="none" id="svg_337" stroke="#000000" transform="rotate(1.35525 338.972 92.312)" x1="308.4" x2="369.54" y1="92.86" y2="91.76"/>
  <line fill="none" id="svg_338" stroke="#000000" x1="341.57" x2="365.44" y1="102.34" y2="102.44"/>
  <line fill="none" id="svg_339" stroke="#000000" transform="rotate(1.78663 342.54 109.74)" x1="342.74" x2="342.34" y1="116.74" y2="102.74"/>
  <line fill="none" id="svg_340" stroke="#000000" transform="rotate(1.35074 357.157 124.54)" x1="348.36" x2="365.96" y1="124.74" y2="124.34"/>
  <line fill="none" id="svg_341" stroke="#000000" transform="rotate(-1.23242 369.04 86.99)" x1="369.14" x2="368.94" y1="81.69" y2="92.29"/>
  <line fill="none" id="svg_342" stroke="#000000" x1="368.54" x2="458.32" y1="81.27" y2="81.14"/>
  <line fill="none" id="svg_343" stroke="#000000" transform="matrix(1 0 0 1 0 0)" x1="403.64" x2="459.24" y1="112.64" y2="111.94"/>
  <line fill="none" id="svg_344" stroke="#000000" x1="458.64" x2="458.14" y1="111.54" y2="80.84"/>
  <line fill="none" id="svg_345" stroke="#000000" transform="rotate(0.216314 384.54 100.94)" x1="365.24" x2="403.84" y1="101.24" y2="100.64"/>
  <line fill="none" id="svg_346" stroke="#000000" x1="403.84" x2="403.54" y1="112.74" y2="100.94"/>
  <line fill="none" id="svg_347" stroke="#000000" transform="rotate(-1.99652 369.157 93.5733)" x1="369.26" x2="369.06" y1="91.37" y2="95.77"/>
  <line fill="none" id="svg_348" stroke="#000000" transform="rotate(-0.543909 371.915 95.49)" x1="374.79" x2="369.04" y1="95.44" y2="95.54"/>
  <line fill="none" id="svg_349" stroke="#000000" x1="376.96" x2="380.16" y1="95.47" y2="95.47"/>
  <line fill="none" id="svg_350" stroke="#000000" transform="matrix(1 0 0 1 0 0)" x1="379.94" x2="379.84" y1="88.34" y2="95.14"/>
  <line fill="none" id="svg_351" stroke="#000000" x1="379.84" x2="396.54" y1="88.54" y2="88.74"/>
  <line fill="none" id="svg_352" stroke="#000000" x1="396.54" x2="396.44" y1="95.24" y2="88.84"/>
  <line fill="none" id="svg_353" stroke="#000000" x1="383.64" x2="388.84" y1="95.04" y2="95.14"/>
  <line fill="none" id="svg_354" stroke="#000000" x1="386.04" x2="386.14" y1="88.44" y2="94.74"/>
  <line fill="none" id="svg_355" stroke="#000000" x1="383.24" x2="388.84" y1="92.04" y2="92.04"/>
  <line fill="none" id="svg_356" stroke="#000000" x1="392.04" x2="392.14" y1="88.74" y2="95.14"/>
  <line fill="none" id="svg_357" stroke="#000000" transform="rotate(-2.61714 393.307 95.0733)" x1="394.77" x2="391.84" y1="95.19" y2="94.96"/>
  <line fill="none" id="svg_358" stroke="#000000" transform="matrix(1 0 0 1 0 0)" x1="396.54" x2="398.34" y1="94.84" y2="94.84"/>
  <line fill="none" id="svg_359" stroke="#000000" x1="403.94" x2="404.04" y1="81.24" y2="95.14"/>
  <line fill="none" id="svg_360" stroke="#000000" x1="401.64" x2="403.74" y1="94.74" y2="94.74"/>
  <line fill="none" id="svg_361" stroke="#000000" x1="448.64" x2="448.74" y1="86.74" y2="108.74"/>
  <line fill="none" id="svg_362" stroke="#000000" x1="458.34" x2="448.54" y1="96.74" y2="96.94"/>
  <line fill="none" id="svg_363" stroke="#000000" x1="453.44" x2="453.44" y1="80.96" y2="87.36"/>
  <line fill="none" id="svg_364" stroke="#000000" x1="448.44" x2="448.44" y1="80.96" y2="83.86"/>
  <line fill="none" id="svg_365" stroke="#000000" transform="rotate(0.651588 356.54 225.41)" x1="346.74" x2="366.34" y1="225.46" y2="225.36"/>
  <line fill="none" id="svg_366" points="null" stroke="#000000" x1="305.54" x2="348.7" y1="343.51" y2="343.37"/>
  <line fill="none" id="svg_367" stroke="#000000" transform="matrix(1 0 0 1 0 0) rotate(0.455465 348.13 340.423)" x1="348.03" x2="348.23" y1="337.07" y2="343.77"/>
  <text fill="#000000" font-family="Courier" font-size="10" id="svg_368" stroke="#000000" stroke-width="0" text-anchor="middle" transform="matrix(0.69941 0.711975 -0.713374 0.700784 51.8691 -20.2145)" x="89.33" xml:space="preserve" y="46.62">большой спорт зал</text>
  <text fill="#000000" font-family="Courier" font-size="10" id="svg_369" stroke="#000000" stroke-width="0" text-anchor="middle" x="183.62" xml:space="preserve" y="175.74"/>
  <text fill="#000000" font-family="Courier" font-size="10" id="svg_370" stroke="#000000" stroke-width="0" text-anchor="middle" x="182.82" xml:space="preserve" y="176.24"/>
  <text fill="#000000" font-family="Courier" font-size="10" id="svg_371" stroke="#000000" stroke-width="0" text-anchor="middle" x="182.82" xml:space="preserve" y="176.24"/>
  <text fill="#000000" font-family="Courier" font-size="10" id="svg_372" stroke="#000000" stroke-width="0" text-anchor="middle" x="182.82" xml:space="preserve" y="176.24"/>
  <text fill="#000000" font-family="Courier" font-size="10" id="svg_373" stroke="#000000" stroke-width="0" text-anchor="middle" x="182.82" xml:space="preserve" y="176.24"/>
  <text fill="#000000" font-family="Courier" font-size="10" id="svg_374" stroke="#000000" stroke-width="0" text-anchor="middle" x="170.22" xml:space="preserve" y="160.4"/>
  <text fill="#000000" font-family="Courier" font-size="10" id="svg_375" stroke="#000000" stroke-width="0" text-anchor="middle" x="164.42" xml:space="preserve" y="156.6"/>
  <text fill="#000000" font-family="Courier" font-size="10" id="svg_376" stroke="#000000" stroke-width="0" text-anchor="middle" x="157.72" xml:space="preserve" y="155.2"/>
  <text fill="#000000" font-family="Courier" font-size="10" id="svg_377" stroke="#000000" stroke-width="0" text-anchor="middle" x="161.22" xml:space="preserve" y="154.5"/>
  <rect fill="none" height="0" id="svg_378" opacity="0.5" stroke="#000000" width="0" x="156.02" y="152.6"/>
  <line fill="none" id="svg_379" opacity="0.5" stroke="#000000" x1="-21.35" x2="-21.35" y1="66.71" y2="66.71"/>
  <line fill="none" id="svg_380" opacity="0.5" stroke="#000000" x1="19.95" x2="19.95" y1="62.81" y2="62.81"/>
  <text fill="#000000" font-family="Courier" font-size="5" id="svg_1" stroke="#000000" stroke-width="0" text-anchor="middle" x="188.36" xml:space="preserve" y="252.56">101</text>
  <text fill="#000000" font-family="Courier" font-size="5" id="svg_2" stroke="#000000" stroke-width="0" text-anchor="middle" x="189.26" xml:space="preserve" y="179.46">106</text>
  <text fill="#000000" font-family="Courier" font-size="5" id="svg_3" stroke="#000000" stroke-width="0" text-anchor="middle" x="185.96" xml:space="preserve" y="157.3">107</text>
  <text fill="#000000" font-family="Courier" font-size="5" id="svg_6" stroke="#000000" stroke-width="0" text-anchor="middle" x="187.36" xml:space="preserve" y="126.16">108</text>
  <text fill="#000000" font-family="Courier" font-size="5" id="svg_8" stroke="#000000" stroke-width="0" text-anchor="middle" x="225.06" xml:space="preserve" y="125.84">109</text>
  <text fill="#000000" font-family="Courier" font-size="5" id="svg_10" stroke="#000000" stroke-width="0" text-anchor="middle" x="218.5" xml:space="preserve" y="166.1">110</text>
  <text fill="#000000" font-family="Courier" font-size="5" id="svg_11" stroke="#000000" stroke-width="0" text-anchor="middle" x="219.3" xml:space="preserve" y="184.26">111</text>
  <text fill="#000000" font-family="Courier" font-size="5" id="svg_12" stroke="#000000" stroke-width="0" text-anchor="middle" x="219.1" xml:space="preserve" y="202.26">112</text>
  <text fill="#000000" font-family="Courier" font-size="5" id="svg_13" stroke="#000000" stroke-width="0" text-anchor="middle" transform="matrix(1 0 0 1 0 0)" x="231.5" xml:space="preserve" y="293.36">130</text>
  <text fill="#000000" font-family="Courier" font-size="5" id="svg_14" stroke="#000000" stroke-width="0" text-anchor="middle" transform="matrix(1 0 0 1 0 0)" x="186.9" xml:space="preserve" y="340.34">141</text>
  <text fill="#000000" font-family="Courier" font-size="5" id="svg_15" stroke="#000000" stroke-width="0" text-anchor="middle" x="189.8" xml:space="preserve" y="364.74">140</text>
  <text fill="#000000" font-family="Courier" font-size="5" id="svg_16" stroke="#000000" stroke-width="0" text-anchor="middle" x="261.78" xml:space="preserve" y="422.76">Актовый Зал</text>
  <line fill="none" id="svg_17" stroke="#000000" transform="rotate(1.65188 316.842 449.323)" x1="316.69" x2="316.99" y1="442.81" y2="455.84"/>
  <line fill="none" id="svg_18" stroke="#000000" x1="316.93" x2="317.23" y1="391.9" y2="406.57"/>
  <line fill="none" id="svg_19" stroke="#000000" transform="rotate(2.25644 316.98 422.6)" x1="316.48" x2="317.48" y1="409.9" y2="435.3"/>
  <line fill="none" id="svg_20" stroke="#000000" x1="325.58" x2="317.08" y1="434.8" y2="434.9"/>
  <text fill="#000000" font-family="Courier" font-size="5" id="svg_21" stroke="#000000" stroke-width="0" text-anchor="middle" x="269.42" xml:space="preserve" y="373.56">Библиотека</text>
  <text fill="#000000" font-family="Courier" font-size="5" id="svg_23" stroke="#000000" stroke-width="0" text-anchor="middle" transform="matrix(1 0 0 1 0 0)" x="278.82" xml:space="preserve" y="295.86">Столовая</text>
  <text fill="#000000" font-family="Courier" font-size="5" id="svg_40" stroke="#000000" stroke-width="0" text-anchor="middle" x="352.1" xml:space="preserve" y="241.46">128</text>
  <text fill="#000000" font-family="Courier" font-size="5" id="svg_41" stroke="#000000" stroke-width="0" text-anchor="middle" transform="translate(2.25 1.66667)" x="349.7" xml:space="preserve" y="209.86">127</text>
  <text fill="#000000" font-family="Courier" font-size="5" id="svg_71" stroke="#000000" stroke-width="0" text-anchor="middle" transform="matrix(1 0 0 1 0 0)" x="320.3" xml:space="preserve" y="205.98">116A</text>
  <text fill="#000000" font-family="Courier" font-size="5" id="svg_72" stroke="#000000" stroke-width="0" text-anchor="middle" x="353.2" xml:space="preserve" y="192.22">126</text>
  <text fill="#000000" font-family="Courier" font-size="5" id="svg_114" stroke="#000000" stroke-width="0" text-anchor="middle" x="321.1" xml:space="preserve" y="187.12">117</text>
  <text fill="#000000" font-family="Courier" font-size="5" id="svg_121" stroke="#000000" stroke-width="0" text-anchor="middle" x="316.9" xml:space="preserve" y="145.86">118</text>
  <text fill="#000000" font-family="Courier" font-size="5" id="svg_122" stroke="#000000" stroke-width="0" text-anchor="middle" x="317.2" xml:space="preserve" y="124.38">119</text>
  <text fill="#000000" font-family="Courier" font-size="5" id="svg_123" stroke="#000000" stroke-width="0" text-anchor="middle" x="353.6" xml:space="preserve" y="113.72">124</text>
  <text fill="#000000" font-family="Courier" font-size="5" id="svg_127" stroke="#000000" stroke-width="0" text-anchor="middle" x="354.1" xml:space="preserve" y="150.82">125</text>
  <text fill="#000000" font-family="Courier" font-size="5" id="svg_140" stroke="#000000" stroke-width="0" text-anchor="middle" x="376.14" xml:space="preserve" y="87.32">120</text>
  <text fill="#000000" font-family="Courier" font-size="5" id="svg_143" stroke="#000000" stroke-width="0" text-anchor="middle" x="394.9" xml:space="preserve" y="86.02">121</text>
  <text fill="#000000" font-family="Courier" font-size="5" id="svg_161" stroke="#000000" stroke-width="0" text-anchor="middle" x="420.7" xml:space="preserve" y="94.12">123</text>
  <path d="m224.47,308.67c0.88,-0.01 1.75,-0.01 2.63,-0.02c0.01,-0.9 0.01,-1.8 0.02,-2.7c0.87,0 1.74,0 2.62,0c0,-0.91 0,-1.81 0,-2.72c0.89,0 1.79,0 2.68,0c0,-0.88 0,-1.77 0,-2.65c0.88,0 1.77,0 2.65,0c0,-0.88 0,-1.77 0,-2.65c1.31,0 2.63,0 3.94,0c0,0.44 0,0.88 0,1.33c-0.87,0 -1.75,0 -2.62,0c0,0.89 0,1.79 0,2.68c-0.88,0 -1.77,0 -2.65,0c0,0.89 0,1.79 0,2.68c-0.88,0 -1.77,0 -2.65,0c0,0.89 0,1.79 0,2.68c-0.89,0 -1.79,0 -2.68,0c0,0.91 0,1.81 0,2.72c-1.33,0 -2.65,0 -3.98,0c0.06,-0.44 -0.1,-0.93 0.04,-1.36l0,0.01z" fill="none" id="svg_383" stroke="#000000"/>
  <path d="m215.3,244.06c0.48,0 0.96,-0.01 1.43,-0.01c0,-0.49 0.01,-0.98 0.01,-1.47c0.48,0 0.95,0 1.43,0c0,-0.49 0,-0.99 0,-1.48c0.49,0 0.98,0 1.46,0c0,-0.48 0,-0.96 0,-1.45c0.48,0 0.96,0 1.45,0c0,-0.48 0,-0.96 0,-1.45c0.72,0 1.43,0 2.15,0c0,0.24 0,0.48 0,0.72c-0.48,0 -0.95,0 -1.43,0c0,0.49 0,0.98 0,1.46c-0.48,0 -0.96,0 -1.45,0c0,0.49 0,0.98 0,1.46c-0.48,0 -0.96,0 -1.45,0c0,0.49 0,0.98 0,1.46c-0.49,0 -0.98,0 -1.46,0c0,0.49 0,0.99 0,1.48c-0.72,0 -1.45,0 -2.17,0c0.03,-0.24 -0.05,-0.51 0.02,-0.74l0.01,0.02z" fill="none" id="svg_385" stroke="#000000"/>
  <path d="m216.98,94.24c0.52,0 1.04,-0.01 1.57,-0.01c0,-0.54 0.01,-1.07 0.01,-1.61c0.52,0 1.04,0 1.56,0c0,-0.54 0,-1.08 0,-1.62c0.53,0 1.07,0 1.6,0c0,-0.53 0,-1.05 0,-1.58c0.53,0 1.05,0 1.58,0c0,-0.53 0,-1.05 0,-1.58c0.78,0 1.56,0 2.35,0c0,0.26 0,0.53 0,0.79c-0.52,0 -1.04,0 -1.56,0c0,0.53 0,1.07 0,1.6c-0.53,0 -1.05,0 -1.58,0c0,0.53 0,1.07 0,1.6c-0.53,0 -1.05,0 -1.58,0c0,0.53 0,1.07 0,1.6c-0.53,0 -1.07,0 -1.6,0c0,0.54 0,1.08 0,1.62c-0.79,0 -1.58,0 -2.37,0c0.04,-0.26 -0.06,-0.56 0.02,-0.81z" fill="none" id="svg_386" stroke="#000000" transform="matrix(1 0 0 1 0 0)"/>
  <path d="m105.71,146.81c0.38,0 0.74,0 1.12,-0.01c0,-0.36 0,-0.73 0.01,-1.09c0.36,0 0.74,0 1.1,0c0,-0.37 0,-0.73 0,-1.1c0.38,0 0.75,0 1.14,0c0,-0.36 0,-0.72 0,-1.07c0.38,0 0.75,0 1.12,0c0,-0.36 0,-0.72 0,-1.07c0.55,0 1.12,0 1.67,0c0,0.18 0,0.36 0,0.54c-0.36,0 -0.74,0 -1.1,0c0,0.36 0,0.72 0,1.09c-0.38,0 -0.75,0 -1.12,0c0,0.36 0,0.72 0,1.09c-0.38,0 -0.75,0 -1.12,0c0,0.36 0,0.72 0,1.09c-0.38,0 -0.75,0 -1.14,0c0,0.37 0,0.73 0,1.1c-0.56,0 -1.12,0 -1.68,0c0.02,-0.18 -0.04,-0.38 0.02,-0.55l-0.02,-0.02z" fill="none" id="svg_388" stroke="#000000"/>
  <path d="m314.87,100.37c0.39,0 0.78,-0.01 1.17,-0.01c0,-0.4 0.01,-0.8 0.01,-1.21c0.39,0 0.78,0 1.17,0c0,-0.4 0,-0.81 0,-1.21c0.4,0 0.8,0 1.2,0c0,-0.39 0,-0.79 0,-1.18c0.39,0 0.79,0 1.18,0c0,-0.39 0,-0.79 0,-1.18c0.59,0 1.17,0 1.76,0c0,0.2 0,0.39 0,0.59c-0.39,0 -0.78,0 -1.17,0c0,0.4 0,0.8 0,1.2c-0.39,0 -0.79,0 -1.18,0c0,0.4 0,0.8 0,1.2c-0.39,0 -0.79,0 -1.18,0c0,0.4 0,0.8 0,1.2c-0.4,0 -0.8,0 -1.2,0c0,0.4 0,0.81 0,1.21c-0.59,0 -1.18,0 -1.78,0c0.03,-0.2 -0.04,-0.42 0.02,-0.61z" fill="none" id="svg_389" stroke="#000000"/>
  <path d="m321.72,243.95c0.43,0 0.87,-0.01 1.3,-0.01c0,-0.45 0.01,-0.89 0.01,-1.34c0.43,0 0.87,0 1.3,0c0,-0.45 0,-0.9 0,-1.35c0.44,0 0.89,0 1.33,0c0,-0.44 0,-0.88 0,-1.32c0.44,0 0.88,0 1.32,0c0,-0.44 0,-0.88 0,-1.32c0.65,0 1.3,0 1.96,0c0,0.22 0,0.44 0,0.66c-0.43,0 -0.87,0 -1.3,0c0,0.44 0,0.89 0,1.33c-0.44,0 -0.88,0 -1.32,0c0,0.44 0,0.89 0,1.33c-0.44,0 -0.88,0 -1.32,0c0,0.44 0,0.89 0,1.33c-0.44,0 -0.89,0 -1.33,0c0,0.45 0,0.9 0,1.35c-0.66,0 -1.32,0 -1.97,0c0.03,-0.22 -0.05,-0.46 0.02,-0.67l0,0.01z" fill="none" id="svg_390" stroke="#000000"/>
  <path d="m245.69,334c0.33,0 0.67,0 1,-0.01c0,-0.34 0,-0.68 0.01,-1.03c0.33,0 0.66,0 1,0c0,-0.34 0,-0.69 0,-1.03c0.34,0 0.68,0 1.02,0c0,-0.34 0,-0.67 0,-1.01c0.34,0 0.67,0 1.01,0c0,-0.34 0,-0.67 0,-1.01c0.5,0 1,0 1.5,0c0,0.17 0,0.34 0,0.5c-0.33,0 -0.66,0 -1,0c0,0.34 0,0.68 0,1.02c-0.34,0 -0.67,0 -1.01,0c0,0.34 0,0.68 0,1.02c-0.34,0 -0.67,0 -1.01,0c0,0.34 0,0.68 0,1.02c-0.34,0 -0.68,0 -1.02,0c0,0.34 0,0.69 0,1.03c-0.5,0 -1.01,0 -1.51,0c0.02,-0.17 -0.04,-0.36 0.01,-0.52l0,0.02z" fill="none" id="svg_391" stroke="#000000"/>
  <path d="m227.38,362.2c0.29,0 0.58,0 0.87,-0.01c0,-0.3 0,-0.6 0.01,-0.89c0.29,0 0.58,0 0.87,0c0,-0.3 0,-0.6 0,-0.9c0.3,0 0.59,0 0.89,0c0,-0.29 0,-0.58 0,-0.88c0.29,0 0.58,0 0.88,0c0,-0.29 0,-0.58 0,-0.88c0.43,0 0.87,0 1.3,0c0,0.15 0,0.29 0,0.44c-0.29,0 -0.58,0 -0.87,0c0,0.3 0,0.59 0,0.89c-0.29,0 -0.58,0 -0.88,0c0,0.3 0,0.59 0,0.89c-0.29,0 -0.58,0 -0.88,0c0,0.3 0,0.59 0,0.89c-0.3,0 -0.59,0 -0.89,0c0,0.3 0,0.6 0,0.9c-0.44,0 -0.88,0 -1.32,0c0.02,-0.15 -0.03,-0.31 0.01,-0.45l0.01,0z" fill="none" id="svg_392" stroke="#000000"/>
  <path d="m318.82,404.95c0.26,0 0.53,0 0.79,-0.01c0,-0.27 0,-0.54 0.01,-0.81c0.26,0 0.53,0 0.79,0c0,-0.27 0,-0.55 0,-0.82c0.27,0 0.54,0 0.81,0c0,-0.27 0,-0.53 0,-0.8c0.27,0 0.53,0 0.8,0c0,-0.27 0,-0.53 0,-0.8c0.4,0 0.79,0 1.19,0c0,0.13 0,0.27 0,0.4c-0.26,0 -0.53,0 -0.79,0c0,0.27 0,0.54 0,0.81c-0.27,0 -0.53,0 -0.8,0c0,0.27 0,0.54 0,0.81c-0.27,0 -0.53,0 -0.8,0c0,0.27 0,0.54 0,0.81c-0.27,0 -0.54,0 -0.81,0c0,0.27 0,0.55 0,0.82c-0.4,0 -0.8,0 -1.2,0c0.02,-0.13 -0.03,-0.28 0.01,-0.41z" fill="none" id="svg_393" stroke="#000000" transform="matrix(1 0 0 1 0 0)"/>
 </g>
</svg>