<?xml version="1.0"?>
<svg width="640" height="479.9999999999999" xmlns="http://www.w3.org/2000/svg" xmlnssvg="http://www.w3.org/2000/svg">
 <!-- Created with SVG-edit - https://github.com/SVG-Edit/svgedit-->
 <title>floor 2</title>

 <g class="layer">
  <title>Layer 1</title>
  <line fill="none" id="svg_370" stroke="#000000" transform="matrix(1 0 0 1 0 0)" x1="116.98" x2="146.98" y1="136.28" y2="164.28"/>
  <line fill="none" id="svg_371" stroke="#000000" transform="matrix(1 0 0 1 0 0)" x1="166.28" x2="117.08" y1="85.64" y2="137.14"/>
  <line fill="none" id="svg_372" stroke="#000000" transform="matrix(1 0 0 1 0 0)" x1="146.28" x2="194.58" y1="164.12" y2="113.42"/>
  <line fill="none" id="svg_373" stroke="#000000" transform="matrix(1 0 0 1 0 0)" x1="166.18" x2="194.78" y1="85.14" y2="113.74"/>
  <line fill="none" id="svg_374" stroke="#000000" transform="matrix(1 0 0 1 0 0)" x1="160.28" x2="173.18" y1="104.58" y2="91.98"/>
  <line fill="none" id="svg_375" stroke="#000000" transform="matrix(1 0 0 1 0 0)" x1="144.98" x2="156.28" y1="119.38" y2="108.58"/>
  <line fill="none" id="svg_376" stroke="#000000" transform="matrix(1 0 0 1 0 0)" x1="178.18" x2="160.38" y1="130.68" y2="114.58"/>
  <line fill="none" id="svg_377" stroke="#000000" transform="matrix(1 0 0 1 0 0)" x1="147.88" x2="156.88" y1="116.18" y2="124.98"/>
  <line fill="none" id="svg_378" stroke="#000000" transform="matrix(1 0 0 1 0 0)" x1="137.28" x2="142.78" y1="126.68" y2="121.48"/>
  <line fill="none" id="svg_379" stroke="#000000" transform="matrix(1 0 0 1 0 0)" x1="145.78" x2="136.68" y1="136.28" y2="126.58"/>
  <line fill="none" id="svg_380" stroke="#000000" transform="matrix(1 0 0 1 0 0)" x1="163.98" x2="145.18" y1="117.58" y2="135.88"/>
  <line fill="none" id="svg_381" stroke="#000000" transform="matrix(1 0 0 1 0 0)" x1="170.38" x2="159.58" y1="138.44" y2="128.34"/>
  <line fill="none" id="svg_382" stroke="#000000" transform="matrix(1 0 0 1 0 0)" x1="132.38" x2="141.78" y1="149.92" y2="140.22"/>
  <line fill="none" id="svg_383" stroke="#000000" transform="matrix(1 0 0 1 0 0)" x1="131.78" x2="140.78" y1="132.02" y2="140.72"/>
  <path d="m126.89,141.53c0.36,0 0.72,0 1.08,-0.01c0,-0.37 0,-0.74 0.01,-1.11c0.36,0 0.72,0 1.08,0c0,-0.37 0,-0.74 0,-1.12c0.37,0 0.74,0 1.1,0c0,-0.36 0,-0.73 0,-1.09c0.36,0 0.73,0 1.09,0c0,-0.36 0,-0.73 0,-1.09c0.54,0 1.08,0 1.62,0c0,0.18 0,0.36 0,0.54c-0.36,0 -0.72,0 -1.08,0c0,0.37 0,0.74 0,1.1c-0.36,0 -0.73,0 -1.09,0c0,0.37 0,0.74 0,1.1c-0.36,0 -0.73,0 -1.09,0c0,0.37 0,0.74 0,1.1c-0.37,0 -0.74,0 -1.1,0c0,0.37 0,0.74 0,1.12c-0.54,0 -1.09,0 -1.63,0c0.02,-0.18 -0.04,-0.38 0.02,-0.56z" fill="none" id="svg_384" stroke="#000000" transform="matrix(1 0 0 1 0 0)"/>
  <text fill="#000000" font-family="Serif" font-size="8" id="svg_386" stroke="#000000" stroke-width="0" text-anchor="middle" transform="matrix(1 0 0 1 0 0)" x="149.98" xml:space="preserve" y="146.82">258</text>
  <text fill="#000000" font-family="Serif" font-size="4" id="svg_387" stroke="#000000" stroke-width="0" text-anchor="middle" transform="matrix(1 0 0 1 0 0)" x="167.58" xml:space="preserve" y="130.04">259</text>
  <text fill="#000000" font-family="Serif" font-size="8" id="svg_388" stroke="#000000" stroke-width="0" text-anchor="middle" transform="matrix(1 0 0 1 0 0)" x="175.68" xml:space="preserve" y="116.08">255</text>
  <text fill="#000000" font-family="Serif" font-size="4" id="svg_389" stroke="#000000" stroke-width="0" text-anchor="middle" transform="matrix(1 0 0 1 0 0)" x="147.08" xml:space="preserve" y="126.72">256</text>
  <line fill="none" id="svg_390" stroke="#000000" transform="matrix(1 0 0 1 0 0)" x1="198.74" x2="253.44" y1="79.04" y2="78.44"/>
  <line fill="none" id="svg_391" stroke="#000000" x1="220.98" x2="221.08" y1="78.52" y2="83.02"/>
  <line fill="none" id="svg_392" stroke="#000000" transform="matrix(1 0 0 1 0 0)" x1="220.88" x2="221.08" y1="86.42" y2="98.02"/>
  <line fill="none" id="svg_393" stroke="#000000" x1="198.98" x2="221.08" y1="98.02" y2="97.82"/>
  <line fill="none" id="svg_394" stroke="#000000" x1="220.98" x2="220.98" y1="101.82" y2="97.32"/>
  <line fill="none" id="svg_395" stroke="#000000" x1="220.78" x2="220.78" y1="118.08" y2="104.38"/>
  <line fill="none" id="svg_396" stroke="#000000" x1="198.98" x2="220.98" y1="118.38" y2="117.78"/>
  <line fill="none" id="svg_397" stroke="#000000" x1="220.88" x2="220.78" y1="121.78" y2="114.68"/>
  <line fill="none" id="svg_398" stroke="#000000" x1="221.18" x2="220.98" y1="151.22" y2="126.32"/>
  <line fill="none" id="svg_399" stroke="#000000" x1="199.38" x2="220.88" y1="147.78" y2="147.38"/>
  <line fill="none" id="svg_400" stroke="#000000" transform="matrix(1 0 0 1 0 0)" x1="221.38" x2="221.38" y1="176.82" y2="154.92"/>
  <line fill="none" id="svg_401" points="null" stroke="#000000" transform="rotate(-1.51942 210.28 176.43)" x1="199.38" x2="221.18" y1="176.22" y2="176.64"/>
  <line fill="none" id="svg_402" stroke="#000000" x1="215.78" x2="215.88" y1="197.46" y2="187.06"/>
  <line fill="none" id="svg_403" stroke="#000000" transform="matrix(1 0 0 1 0 0)" x1="215.78" x2="215.88" y1="182.76" y2="176.86"/>
  <line fill="none" id="svg_404" stroke="#000000" x1="199.18" x2="216.08" y1="196.96" y2="196.86"/>
  <line fill="none" id="svg_405" stroke="#000000" x1="198.88" x2="198.98" y1="78.66" y2="97.96"/>
  <line fill="none" id="svg_406" stroke="#000000" x1="199.08" x2="198.98" y1="118.42" y2="97.82"/>
  <line fill="none" id="svg_407" stroke="#000000" x1="199.38" x2="199.08" y1="147.46" y2="117.06"/>
  <line fill="none" id="svg_408" stroke="#000000" x1="199.48" x2="199.28" y1="176.76" y2="146.66"/>
  <line fill="none" id="svg_409" stroke="#000000" x1="199.38" x2="199.48" y1="197.08" y2="175.08"/>
  <line fill="none" id="svg_410" stroke="#000000" x1="199.28" x2="199.38" y1="216.46" y2="194.66"/>
  <line fill="none" id="svg_411" stroke="#000000" x1="221.78" x2="199.08" y1="216.48" y2="216.28"/>
  <line fill="none" id="svg_412" stroke="#000000" x1="221.78" x2="221.88" y1="196.18" y2="216.98"/>
  <line fill="none" id="svg_413" stroke="#000000" x1="219.38" x2="221.38" y1="196.58" y2="196.58"/>
  <line fill="none" id="svg_414" stroke="#000000" x1="230.48" x2="230.38" y1="85.82" y2="112.32"/>
  <line fill="none" id="svg_415" stroke="#000000" x1="252.98" x2="230.48" y1="88.42" y2="88.42"/>
  <line fill="none" id="svg_416" stroke="#000000" transform="matrix(1 0 0 1 0 0)" x1="234.58" x2="253.38" y1="98.42" y2="98.42"/>
  <line fill="none" id="svg_417" stroke="#000000" x1="252.78" x2="252.98" y1="78.12" y2="98.02"/>
  <line fill="none" id="svg_418" stroke="#000000" x1="230.68" x2="230.78" y1="114.98" y2="140.88"/>
  <line fill="none" id="svg_419" stroke="#000000" x1="253.18" x2="230.58" y1="118.08" y2="118.28"/>
  <line fill="none" id="svg_420" stroke="#000000" x1="252.88" x2="252.98" y1="97.68" y2="137.78"/>
  <line fill="none" id="svg_421" stroke="#000000" x1="230.98" x2="231.08" y1="144.42" y2="170.22"/>
  <line fill="none" id="svg_422" stroke="#000000" x1="253.28" x2="230.68" y1="147.22" y2="147.72"/>
  <line fill="none" id="svg_423" stroke="#000000" x1="252.98" x2="253.28" y1="136.98" y2="177.48"/>
  <line fill="none" id="svg_424" stroke="#000000" x1="231.18" x2="231.18" y1="173.86" y2="190.46"/>
  <line fill="none" id="svg_425" stroke="#000000" x1="253.18" x2="230.98" y1="176.66" y2="176.76"/>
  <line fill="none" id="svg_426" stroke="#000000" x1="231.08" x2="231.08" y1="193.08" y2="196.68"/>
  <line fill="none" id="svg_427" stroke="#000000" x1="253.78" x2="230.98" y1="196.48" y2="196.58"/>
  <line fill="none" id="svg_428" stroke="#000000" x1="253.28" x2="253.48" y1="176.78" y2="216.78"/>
  <line fill="none" id="svg_429" stroke="#000000" x1="230.98" x2="231.08" y1="201.26" y2="211.86"/>
  <line fill="none" id="svg_430" stroke="#000000" x1="253.38" x2="230.78" y1="205.86" y2="205.86"/>
  <line fill="none" id="svg_431" stroke="#000000" transform="matrix(1 0 0 1 0 0)" x1="244.08" x2="244.08" y1="209.76" y2="201.96"/>
  <line fill="none" id="svg_432" stroke="#000000" x1="238.98" x2="238.98" y1="205.66" y2="201.66"/>
  <line fill="none" id="svg_433" stroke="#000000" transform="matrix(1 0 0 1 0 0)" x1="241.78" x2="241.68" y1="206.46" y2="201.76"/>
  <line fill="none" id="svg_434" stroke="#000000" x1="246.78" x2="246.98" y1="201.66" y2="209.56"/>
  <line fill="none" id="svg_435" stroke="#000000" x1="250.18" x2="250.28" y1="209.46" y2="206.36"/>
  <line fill="none" id="svg_436" stroke="#000000" transform="matrix(1 0 0 1 0 0)" x1="234.38" x2="237.68" y1="211.68" y2="211.68"/>
  <line fill="none" id="svg_437" stroke="#000000" x1="237.68" x2="237.58" y1="205.38" y2="211.58"/>
  <line fill="none" id="svg_438" stroke="#000000" x1="230.68" x2="253.88" y1="216.52" y2="216.42"/>
  <line fill="none" id="svg_439" stroke="#000000" x1="199.38" x2="199.58" y1="215.16" y2="242.16"/>
  <line fill="none" id="svg_440" stroke="#000000" x1="253.48" x2="253.58" y1="215.48" y2="242.48"/>
  <line fill="none" id="svg_441" stroke="#000000" x1="238.88" x2="249.18" y1="241.68" y2="241.88"/>
  <line fill="none" id="svg_442" stroke="#000000" x1="248.88" x2="248.88" y1="231.98" y2="242.38"/>
  <line fill="none" id="svg_443" stroke="#000000" x1="245.38" x2="245.28" y1="226.18" y2="237.88"/>
  <line fill="none" id="svg_444" stroke="#000000" x1="231.38" x2="253.48" y1="226.56" y2="226.16"/>
  <line fill="none" id="svg_445" stroke="#000000" transform="matrix(1 0 0 1 0 0)" x1="230.98" x2="230.98" y1="216.16" y2="220.46"/>
  <line fill="none" id="svg_446" stroke="#000000" x1="230.88" x2="230.98" y1="223.46" y2="226.96"/>
  <line fill="none" id="svg_447" stroke="#000000" x1="199.78" x2="221.88" y1="241.98" y2="242.18"/>
  <line fill="none" id="svg_448" stroke="#000000" x1="221.78" x2="221.58" y1="222.58" y2="241.88"/>
  <line fill="none" id="svg_449" stroke="#000000" x1="230.88" x2="230.98" y1="236.82" y2="242.32"/>
  <line fill="none" id="svg_450" stroke="#000000" x1="239.28" x2="230.68" y1="241.42" y2="241.62"/>
  <line fill="none" id="svg_451" stroke="#000000" x1="238.18" x2="238.18" y1="231.78" y2="234.18"/>
  <line fill="none" id="svg_452" stroke="#000000" transform="matrix(1 0 0 1 0 0)" x1="245.08" x2="238.08" y1="233.78" y2="233.88"/>
  <line fill="none" id="svg_453" stroke="#000000" transform="matrix(1 0 0 1 0 0)" x1="197.08" x2="221.98" y1="263.82" y2="264.02"/>
  <line fill="none" id="svg_454" stroke="#000000" transform="matrix(1 0 0 1 0 0)" x1="221.78" x2="221.88" y1="250.82" y2="269.22"/>
  <line fill="none" id="svg_455" stroke="#000000" x1="221.78" x2="221.98" y1="273.02" y2="290.82"/>
  <line fill="none" id="svg_456" stroke="#000000" transform="matrix(1 0 0 1 0 0)" x1="196.78" x2="221.68" y1="285.32" y2="285.12"/>
  <line fill="none" id="svg_457" stroke="#000000" x1="222.08" x2="222.18" y1="294.68" y2="307.88"/>
  <line fill="none" id="svg_458" stroke="#000000" x1="201.58" x2="222.28" y1="308.26" y2="308.26"/>
  <line fill="none" id="svg_459" stroke="#000000" x1="222.18" x2="222.28" y1="306.52" y2="317.22"/>
  <line fill="none" id="svg_460" stroke="#000000" x1="201.88" x2="202.18" y1="313.22" y2="331.32"/>
  <line fill="none" id="svg_461" stroke="#000000" x1="222.18" x2="222.28" y1="320.42" y2="331.12"/>
  <line fill="none" id="svg_462" stroke="#000000" x1="201.88" x2="221.98" y1="330.82" y2="330.72"/>
  <line fill="none" id="svg_463" stroke="#000000" x1="201.98" x2="202.18" y1="328.86" y2="359.46"/>
  <line fill="none" id="svg_465" stroke="#000000" x1="222.38" x2="222.58" y1="339.66" y2="359.46"/>
  <line fill="none" id="svg_466" stroke="#000000" x1="201.98" x2="222.48" y1="359.06" y2="359.06"/>
  <line fill="none" id="svg_467" stroke="#000000" x1="202.08" x2="218.38" y1="351.06" y2="351.16"/>
  <line fill="none" id="svg_468" stroke="#000000" x1="202.18" x2="202.08" y1="358.48" y2="372.98"/>
  <line fill="none" id="svg_469" stroke="#000000" x1="222.28" x2="222.28" y1="363.78" y2="372.58"/>
  <line fill="none" id="svg_470" stroke="#000000" x1="201.88" x2="222.18" y1="373.18" y2="372.98"/>
  <line fill="none" id="svg_471" stroke="#000000" x1="201.88" x2="202.08" y1="408.96" y2="373.06"/>
  <line fill="none" id="svg_472" stroke="#000000" x1="222.18" x2="202.08" y1="381.76" y2="381.96"/>
  <line fill="none" id="svg_473" stroke="#000000" x1="202.38" x2="222.98" y1="390.82" y2="391.02"/>
  <line fill="none" id="svg_474" stroke="#000000" x1="229.28" x2="229.48" y1="390.32" y2="408.72"/>
  <line fill="none" id="svg_475" stroke="#000000" x1="222.58" x2="222.58" y1="387.78" y2="390.58"/>
  <line fill="none" id="svg_476" stroke="#000000" x1="229.28" x2="229.38" y1="388.22" y2="392.22"/>
  <line fill="none" id="svg_477" stroke="#000000" transform="matrix(1 0 0 1 0 0)" x1="201.68" x2="258.98" y1="408.38" y2="408.68"/>
  <line fill="none" id="svg_478" stroke="#000000" x1="244.38" x2="258.98" y1="400.56" y2="400.56"/>
  <line fill="none" id="svg_479" stroke="#000000" x1="258.78" x2="258.98" y1="408.66" y2="400.36"/>
  <line fill="none" id="svg_480" stroke="#000000" x1="244.78" x2="244.98" y1="363.02" y2="400.72"/>
  <line fill="none" id="svg_481" stroke="#000000" x1="228.98" x2="234.08" y1="388.42" y2="388.42"/>
  <line fill="none" id="svg_482" stroke="#000000" x1="237.98" x2="244.38" y1="388.22" y2="388.22"/>
  <line fill="none" id="svg_483" stroke="#000000" x1="221.88" x2="230.28" y1="373.06" y2="373.06"/>
  <line fill="none" id="svg_484" stroke="#000000" transform="matrix(1 0 0 1 0 0)" x1="234.28" x2="239.68" y1="372.98" y2="372.98"/>
  <line fill="none" id="svg_485" stroke="#000000" x1="239.58" x2="239.48" y1="367.78" y2="388.08"/>
  <line fill="none" id="svg_486" stroke="#000000" x1="239.58" x2="239.58" y1="360.12" y2="365.22"/>
  <line fill="none" id="svg_487" stroke="#000000" x1="258.88" x2="239.48" y1="363.42" y2="363.32"/>
  <line fill="none" id="svg_488" stroke="#000000" x1="239.38" x2="239.48" y1="353.58" y2="357.78"/>
  <line fill="none" id="svg_489" stroke="#000000" transform="rotate(0.415779 258.53 347.43)" x1="258.18" x2="258.88" y1="331.38" y2="363.48"/>
  <line fill="none" id="svg_490" stroke="#000000" x1="239.38" x2="258.58" y1="354.88" y2="354.98"/>
  <line fill="none" id="svg_491" stroke="#000000" transform="matrix(1 0 0 1 0 0)" x1="239.48" x2="239.68" y1="330.82" y2="350.42"/>
  <line fill="none" id="svg_492" stroke="#000000" x1="258.18" x2="239.08" y1="350.32" y2="350.32"/>
  <line fill="none" id="svg_493" stroke="#000000" x1="243.38" x2="254.78" y1="343.32" y2="343.42"/>
  <line fill="none" id="svg_494" stroke="#000000" x1="248.98" x2="249.28" y1="330.92" y2="350.02"/>
  <line fill="none" id="svg_495" stroke="#000000" x1="246.58" x2="251.68" y1="346.42" y2="346.42"/>
  <line fill="none" id="svg_496" stroke="#000000" x1="254.68" x2="254.58" y1="349.92" y2="346.12"/>
  <line fill="none" id="svg_497" stroke="#000000" x1="244.18" x2="244.08" y1="346.02" y2="350.52"/>
  <line fill="none" id="svg_498" stroke="#000000" x1="239.58" x2="242.38" y1="331.18" y2="331.18"/>
  <line fill="none" id="svg_499" stroke="#000000" x1="245.18" x2="252.98" y1="331.38" y2="331.38"/>
  <line fill="none" id="svg_500" stroke="#000000" transform="matrix(1 0 0 1 0 0)" x1="255.88" x2="259.98" y1="331.28" y2="331.28"/>
  <line fill="none" id="svg_501" stroke="#000000" transform="matrix(1 0 0 1 0 0)" x1="239.38" x2="258.18" y1="322.42" y2="322.32"/>
  <line fill="none" id="svg_502" stroke="#000000" transform="matrix(1 0 0 1 0 0)" x1="313.5" x2="258.2" y1="354.86" y2="354.96"/>
  <line fill="none" id="svg_503" stroke="#000000" x1="286.8" x2="313.2" y1="338.58" y2="338.38"/>
  <line fill="none" id="svg_504" stroke="#000000" x1="312.9" x2="313.2" y1="311.88" y2="354.98"/>
  <line fill="none" id="svg_505" stroke="#000000" transform="matrix(1 0 0 1 0 0)" x1="268.9" x2="269.2" y1="311.82" y2="331.62"/>
  <line fill="none" id="svg_506" stroke="#000000" transform="matrix(1 0 0 1 0 0) rotate(1.02466 291.8 311.62)" x1="314.8" x2="268.8" y1="311.32" y2="311.92"/>
  <line fill="none" id="svg_507" stroke="#000000" x1="276.5" x2="276.5" y1="311.42" y2="314.42"/>
  <line fill="none" id="svg_508" stroke="#000000" x1="276.5" x2="276.7" y1="316.82" y2="331.62"/>
  <line fill="none" id="svg_509" stroke="#000000" x1="269" x2="278.1" y1="331.22" y2="331.62"/>
  <line fill="none" id="svg_510" stroke="#000000" x1="281.8" x2="312.7" y1="331.52" y2="331.62"/>
  <line fill="none" id="svg_511" stroke="#000000" x1="258.2" x2="263.5" y1="338.68" y2="338.58"/>
  <line fill="none" id="svg_512" stroke="#000000" x1="265.8" x2="271.3" y1="338.58" y2="338.68"/>
  <line fill="none" id="svg_513" stroke="#000000" x1="273.9" x2="283.2" y1="338.58" y2="338.58"/>
  <line fill="none" id="svg_514" stroke="#000000" x1="267.7" x2="267.8" y1="355.68" y2="338.18"/>
  <line fill="none" id="svg_515" stroke="#000000" transform="matrix(1 0 0 1 0 0)" x1="277.3" x2="277.2" y1="354.98" y2="338.58"/>
  <line fill="none" id="svg_516" stroke="#000000" x1="257.72" x2="268.82" y1="325.22" y2="325.32"/>
  <line fill="none" id="svg_517" stroke="#000000" x1="258.12" x2="258.12" y1="284.82" y2="325.42"/>
  <line fill="none" id="svg_518" stroke="#000000" x1="239.22" x2="257.92" y1="307.22" y2="306.82"/>
  <line fill="none" id="svg_519" stroke="#000000" x1="239.72" x2="257.82" y1="311.78" y2="311.48"/>
  <line fill="none" id="svg_520" stroke="#000000" transform="matrix(1 0 0 1 0 0)" x1="239.42" x2="239.62" y1="301.42" y2="307.32"/>
  <line fill="none" id="svg_522" stroke="#000000" x1="239.36" x2="239.46" y1="298.88" y2="293.58"/>
  <line fill="none" id="svg_523" stroke="#000000" x1="239.36" x2="239.36" y1="284.38" y2="290.68"/>
  <line fill="none" id="svg_524" stroke="#000000" x1="258.06" x2="239.16" y1="284.18" y2="284.38"/>
  <line fill="none" id="svg_525" stroke="#000000" x1="239.46" x2="257.76" y1="295.78" y2="295.68"/>
  <line fill="none" id="svg_526" stroke="#000000" x1="258.26" x2="257.96" y1="262.9" y2="286.5"/>
  <line fill="none" id="svg_527" stroke="#000000" x1="238.76" x2="258.16" y1="271.3" y2="271.2"/>
  <line fill="none" id="svg_528" stroke="#000000" x1="239.16" x2="239.06" y1="263.6" y2="271.2"/>
  <line fill="none" id="svg_529" stroke="#000000" x1="250.76" x2="265.46" y1="263.5" y2="263.4"/>
  <line fill="none" id="svg_530" stroke="#000000" x1="247.46" x2="238.86" y1="263.7" y2="263.8"/>
  <line fill="none" id="svg_531" stroke="#000000" x1="239.16" x2="239.16" y1="270.48" y2="274.58"/>
  <line fill="none" id="svg_532" stroke="#000000" x1="239.16" x2="239.26" y1="278.48" y2="284.98"/>
  <line fill="none" id="svg_533" stroke="#000000" x1="239.96" x2="239.86" y1="311.34" y2="314.74"/>
  <line fill="none" id="svg_534" stroke="#000000" x1="239.86" x2="239.86" y1="322.24" y2="319.14"/>
  <line fill="none" id="svg_535" stroke="#000000" x1="269.86" x2="314.96" y1="263.28" y2="263.28"/>
  <line fill="none" id="svg_536" stroke="#000000" x1="314.56" x2="314.56" y1="272.38" y2="262.98"/>
  <line fill="none" id="svg_538" stroke="#000000" transform="matrix(1 0 0 1 0 0)" x1="314.26" x2="314.56" y1="276.5" y2="311.3"/>
  <line fill="none" id="svg_539" stroke="#000000" x1="201.7" x2="201.9" y1="307.8" y2="315.1"/>
  <path d="m199.96,241.7c-0.1,0.89 -0.3,1.75 -0.41,2.62c-0.11,0.87 -0.2,1.73 -0.31,2.61c-0.1,0.89 -0.22,1.75 -0.31,2.62c-0.09,0.91 -0.22,1.79 -0.41,2.66c-0.2,0.9 -0.34,1.77 -0.49,2.65c-0.15,0.88 -0.35,1.76 -0.51,2.63c-0.15,0.87 -0.2,1.76 -0.32,2.67c-0.12,0.87 -0.25,1.74 -0.35,2.65c-0.1,0.88 -0.16,1.76 -0.26,2.68c-0.1,0.89 -0.16,1.8 -0.21,2.69c-0.05,0.89 -0.15,1.8 -0.2,2.7c-0.05,0.89 0,1.8 0,2.72c0,0.9 0,1.76 0,2.69c0,0.9 0,1.82 0,2.71c0,0.9 -0.03,1.83 0,2.74c0.03,0.88 0.11,1.78 0.23,2.7c0.12,0.87 0.27,1.76 0.39,2.64c0.12,0.92 0.27,1.8 0.42,2.69c0.15,0.89 0.3,1.77 0.47,2.65c0.17,0.87 0.37,1.77 0.53,2.62c0.17,0.89 0.43,1.78 0.61,2.64c0.19,0.88 0.41,1.74 0.64,2.62c0.22,0.86 0.44,1.73 0.69,2.6c0.25,0.85 0.36,1.75 0.7,2.56c0.33,0.8 0.71,1.58 1,2.36l0.22,0.8" fill="none" id="svg_540" stroke="#000000" transform="matrix(1 0 0 1 0 0)"/>
  <line fill="none" id="svg_541" stroke="#000000" x1="253.6" x2="318.4" y1="240.3" y2="240.7"/>
  <line fill="none" id="svg_542" stroke="#000000" x1="253.5" x2="253.5" y1="241.6" y2="254.8"/>
  <line fill="none" id="svg_543" stroke="#000000" x1="270.3" x2="253.6" y1="254.64" y2="254.64"/>
  <line fill="none" id="svg_544" stroke="#000000" x1="276.6" x2="276.5" y1="240.74" y2="254.64"/>
  <line fill="none" id="svg_545" stroke="#000000" x1="273.3" x2="279.3" y1="254.64" y2="254.54"/>
  <line fill="none" id="svg_546" stroke="#000000" x1="282.8" x2="308.6" y1="254.44" y2="254.54"/>
  <line fill="none" id="svg_547" stroke="#000000" x1="296.1" x2="296.2" y1="240.54" y2="254.64"/>
  <line fill="none" id="svg_548" stroke="#000000" x1="311.7" x2="333.5" y1="254.34" y2="254.14"/>
  <line fill="none" id="svg_549" stroke="#000000" x1="314.8" x2="314.9" y1="240.34" y2="253.94"/>
  <line fill="none" id="svg_550" stroke="#000000" x1="328.2" x2="333.4" y1="241.38" y2="241.48"/>
  <line fill="none" id="svg_551" stroke="#000000" x1="333" x2="333.1" y1="253.98" y2="250.58"/>
  <line fill="none" id="svg_552" stroke="#000000" x1="333.3" x2="333.3" y1="246.28" y2="233.78"/>
  <line fill="none" id="svg_553" stroke="#000000" x1="328.1" x2="328.2" y1="226.04" y2="234.24"/>
  <line fill="none" id="svg_554" stroke="#000000" transform="matrix(1 0 0 1 0 0)" x1="333.7" x2="327.9" y1="233.64" y2="233.74"/>
  <line fill="none" id="svg_555" stroke="#000000" x1="314.5" x2="353.3" y1="307.02" y2="307.22"/>
  <line fill="none" id="svg_556" stroke="#000000" x1="352.9" x2="352.8" y1="241" y2="307.3"/>
  <line fill="none" id="svg_557" stroke="#000000" x1="330.52" x2="330.62" y1="300.58" y2="270.68"/>
  <line fill="none" id="svg_558" stroke="#000000" x1="330.52" x2="330.42" y1="262.52" y2="267.92"/>
  <line fill="none" id="svg_559" stroke="#000000" x1="352.72" x2="329.92" y1="262.62" y2="262.72"/>
  <line fill="none" id="svg_560" stroke="#000000" x1="330.62" x2="352.72" y1="272.62" y2="272.72"/>
  <line fill="none" id="svg_561" stroke="#000000" x1="350.12" x2="350.02" y1="236.72" y2="241.82"/>
  <line fill="none" id="svg_562" stroke="#000000" x1="352.92" x2="350.32" y1="241.22" y2="241.22"/>
  <line fill="none" id="svg_563" stroke="#000000" x1="328.32" x2="340.82" y1="226.28" y2="226.48"/>
  <line fill="none" id="svg_564" stroke="#000000" x1="333.22" x2="336.42" y1="237.38" y2="237.58"/>
  <line fill="none" id="svg_565" stroke="#000000" x1="341.22" x2="340.92" y1="237.38" y2="226.08"/>
  <line fill="none" id="svg_566" stroke="#000000" x1="347.62" x2="350.02" y1="237.38" y2="237.38"/>
  <line fill="none" id="svg_567" stroke="#000000" x1="343.62" x2="341.32" y1="237.58" y2="237.58"/>
  <line fill="none" id="svg_568" stroke="#000000" transform="matrix(1 0 0 1 0 0)" x1="340.92" x2="341.02" y1="226.38" y2="223.88"/>
  <line fill="none" id="svg_569" stroke="#000000" transform="matrix(1 0 0 1 0 0) matrix(0.999941 -0.0108493 0.0108493 0.999941 -2.35738 3.46645)" x1="318.02" x2="318.62" y1="240.46" y2="197.56"/>
  <line fill="none" id="svg_570" stroke="#000000" transform="matrix(1 0 0 1 0 0)" x1="350.72" x2="350.72" y1="236.58" y2="230.18"/>
  <line fill="none" id="svg_571" stroke="#000000" transform="matrix(1 0 0 1 0 0)" x1="318.22" x2="327.72" y1="226.26" y2="226.26"/>
  <line fill="none" id="svg_572" stroke="#000000" x1="318.02" x2="325.22" y1="240.36" y2="240.36"/>
  <line fill="none" id="svg_573" stroke="#000000" x1="350.22" x2="371.92" y1="236.52" y2="236.42"/>
  <line fill="none" id="svg_574" stroke="#000000" x1="371.52" x2="371.62" y1="198.12" y2="236.42"/>
  <line fill="none" id="svg_575" stroke="#000000" x1="353.32" x2="371.42" y1="208.18" y2="208.08"/>
  <line fill="none" id="svg_576" stroke="#000000" transform="matrix(1 0 0 1 0 0)" x1="349.92" x2="350.22" y1="195.98" y2="223.78"/>
  <line fill="none" id="svg_577" stroke="#000000" transform="matrix(1 0 0 1 0 0) rotate(178.489 362.57 198.52)" x1="353.42" x2="371.72" y1="198.21" y2="198.83"/>
  <line fill="none" id="svg_579" stroke="#000000" x1="349.62" x2="349.92" y1="155.16" y2="192.66"/>
  <line fill="none" id="svg_580" stroke="#000000" x1="371.72" x2="371.62" y1="160.16" y2="200.16"/>
  <line fill="none" id="svg_581" stroke="#000000" transform="matrix(1 0 0 1 0 0)" x1="349.62" x2="371.22" y1="169.76" y2="169.66"/>
  <line fill="none" id="svg_582" stroke="#000000" x1="340.62" x2="340.62" y1="219.92" y2="216.92"/>
  <line fill="none" id="svg_583" stroke="#000000" transform="matrix(1 0 0 1 0 0)" x1="318.32" x2="340.62" y1="217.62" y2="217.82"/>
  <line fill="none" id="svg_584" stroke="#000000" transform="rotate(-0.701528 329.97 207.33)" x1="318.32" x2="341.62" y1="207.08" y2="207.58"/>
  <line fill="none" id="svg_585" stroke="#000000" x1="341.02" x2="341.22" y1="202.88" y2="213.08"/>
  <line fill="none" id="svg_586" stroke="#000000" x1="325.42" x2="325.42" y1="202.98" y2="211.88"/>
  <line fill="none" id="svg_587" stroke="#000000" x1="322.82" x2="322.82" y1="211.58" y2="207.38"/>
  <line fill="none" id="svg_588" stroke="#000000" x1="328.02" x2="328.12" y1="203.18" y2="211.88"/>
  <line fill="none" id="svg_589" stroke="#000000" x1="330.42" x2="330.52" y1="202.98" y2="207.78"/>
  <line fill="none" id="svg_590" stroke="#000000" x1="333.12" x2="333.22" y1="202.98" y2="213.58"/>
  <line fill="none" id="svg_591" stroke="#000000" x1="337.92" x2="333.02" y1="212.78" y2="212.68"/>
  <line fill="none" id="svg_592" stroke="#000000" x1="337.02" x2="337.02" y1="206.88" y2="210.68"/>
  <line fill="none" id="svg_593" stroke="#000000" x1="318.42" x2="318.42" y1="159.78" y2="198.98"/>
  <line fill="none" id="svg_594" stroke="#000000" x1="341.52" x2="318.32" y1="198.18" y2="198.38"/>
  <line fill="none" id="svg_595" stroke="#000000" x1="318.42" x2="340.92" y1="178.82" y2="178.72"/>
  <line fill="none" id="svg_596" stroke="#000000" x1="337.22" x2="337.22" y1="182.32" y2="178.72"/>
  <line fill="none" id="svg_597" stroke="#000000" x1="337.32" x2="337.32" y1="186.06" y2="198.66"/>
  <line fill="none" id="svg_598" stroke="#000000" x1="318.52" x2="318.52" y1="121.86" y2="165.06"/>
  <line fill="none" id="svg_599" stroke="#000000" x1="340.92" x2="340.92" y1="129.56" y2="160.96"/>
  <line fill="none" id="svg_600" stroke="#000000" x1="340.62" x2="340.62" y1="167.28" y2="178.98"/>
  <line fill="none" id="svg_601" stroke="#000000" x1="318.42" x2="336.02" y1="159.96" y2="160.36"/>
  <line fill="none" id="svg_602" stroke="#000000" x1="318.22" x2="340.92" y1="150.66" y2="150.96"/>
  <line fill="none" id="svg_603" stroke="#000000" x1="318.42" x2="341.52" y1="121.92" y2="122.12"/>
  <line fill="none" id="svg_604" stroke="#000000" x1="318.52" x2="318.62" y1="83.78" y2="125.08"/>
  <line fill="none" id="svg_605" stroke="#000000" transform="matrix(1 0 0 1 0 0)" x1="318.42" x2="371.62" y1="84.12" y2="84.42"/>
  <line fill="none" id="svg_606" stroke="#000000" x1="318.22" x2="340.92" y1="93.82" y2="93.92"/>
  <line fill="none" id="svg_607" stroke="#000000" x1="340.42" x2="340.52" y1="83.82" y2="87.12"/>
  <line fill="none" id="svg_608" stroke="#000000" x1="340.42" x2="340.42" y1="90.62" y2="96.02"/>
  <line fill="none" id="svg_609" stroke="#000000" x1="340.72" x2="340.82" y1="99.88" y2="124.88"/>
  <line fill="none" id="svg_610" stroke="#000000" x1="371.62" x2="371.82" y1="92.46" y2="141.76"/>
  <line fill="none" id="svg_611" stroke="#000000" x1="371.82" x2="371.72" y1="162.08" y2="138.08"/>
  <line fill="none" id="svg_612" stroke="#000000" x1="353.42" x2="371.52" y1="160.58" y2="160.98"/>
  <line fill="none" id="svg_613" stroke="#000000" x1="350.02" x2="349.92" y1="151.12" y2="139.52"/>
  <line fill="none" id="svg_614" stroke="#000000" x1="371.62" x2="349.82" y1="141.62" y2="141.72"/>
  <line fill="none" id="svg_615" stroke="#000000" x1="349.82" x2="349.92" y1="110.16" y2="136.16"/>
  <line fill="none" id="svg_616" stroke="#000000" x1="353.72" x2="371.42" y1="122.26" y2="122.46"/>
  <line fill="none" id="svg_617" stroke="#000000" x1="349.82" x2="349.92" y1="91.48" y2="107.38"/>
  <line fill="none" id="svg_618" stroke="#000000" x1="350.12" x2="350.02" y1="83.86" y2="87.46"/>
  <line fill="none" id="svg_619" stroke="#000000" x1="349.92" x2="371.52" y1="93.86" y2="94.06"/>
  <line fill="none" id="svg_620" stroke="#000000" x1="354.02" x2="371.22" y1="112.66" y2="112.56"/>
  <line fill="none" id="svg_621" stroke="#000000" x1="371.62" x2="408.12" y1="92.72" y2="92.52"/>
  <line fill="none" id="svg_622" stroke="#000000" x1="407.62" x2="460.22" y1="104.12" y2="104.02"/>
  <line fill="none" id="svg_623" stroke="#000000" x1="407.82" x2="407.92" y1="92.42" y2="103.92"/>
  <line fill="none" id="svg_624" stroke="#000000" x1="459.62" x2="459.72" y1="74.52" y2="104.12"/>
  <line fill="none" id="svg_625" stroke="#000000" x1="371.72" x2="460.02" y1="74.98" y2="74.68"/>
  <line fill="none" id="svg_626" stroke="#000000" x1="371.32" x2="371.72" y1="84.58" y2="74.38"/>
  <line fill="none" id="svg_627" stroke="#000000" x1="371.22" x2="371.42" y1="87.08" y2="81.28"/>
  <line fill="none" id="svg_628" stroke="#000000" x1="381.22" x2="370.92" y1="86.78" y2="86.98"/>
  <line fill="none" id="svg_629" stroke="#000000" x1="391.32" x2="391.22" y1="74.38" y2="87.78"/>
  <line fill="none" id="svg_630" stroke="#000000" x1="385.42" x2="400.82" y1="87.08" y2="87.28"/>
  <line fill="none" id="svg_631" stroke="#000000" transform="matrix(1 0 0 1 0 0)" x1="385.42" x2="398.02" y1="84.68" y2="84.58"/>
  <line fill="none" id="svg_632" stroke="#000000" x1="385.22" x2="397.92" y1="81.58" y2="81.68"/>
  <line fill="none" id="svg_633" stroke="#000000" x1="404.02" x2="408.42" y1="87.18" y2="87.08"/>
  <line fill="none" id="svg_634" stroke="#000000" x1="408.22" x2="408.02" y1="74.38" y2="87.08"/>
  <line fill="none" id="svg_635" stroke="#000000" x1="450.22" x2="450.32" y1="79.28" y2="98.18"/>
  <line fill="none" id="svg_636" stroke="#000000" transform="matrix(1 0 0 1 0 0)" x1="459.42" x2="450.72" y1="89.48" y2="89.68"/>
  <text fill="#000000" font-family="Serif" font-size="4" id="svg_637" stroke="#000000" stroke-width="0" text-anchor="middle" x="378.88" xml:space="preserve" y="82.92">250</text>
  <text fill="#000000" font-family="Serif" font-size="3" id="svg_638" stroke="#000000" stroke-width="0" text-anchor="middle" x="402.08" xml:space="preserve" y="81.82">251</text>
  <text fill="#000000" font-family="Serif" font-size="5" id="svg_639" stroke="#000000" stroke-width="0" text-anchor="middle" transform="matrix(1 0 0 1 0 0)" x="430.18" xml:space="preserve" y="90.12">Малый спорт зал</text>
  <path d="m327.22,91.25c0.32,0 0.64,0 0.96,-0.01c0,-0.33 0,-0.65 0.01,-0.98c0.32,0 0.63,0 0.95,0c0,-0.33 0,-0.66 0,-0.99c0.33,0 0.65,0 0.98,0c0,-0.32 0,-0.64 0,-0.96c0.32,0 0.64,0 0.96,0c0,-0.32 0,-0.64 0,-0.96c0.48,0 0.96,0 1.43,0c0,0.16 0,0.32 0,0.48c-0.32,0 -0.63,0 -0.95,0c0,0.33 0,0.65 0,0.98c-0.32,0 -0.64,0 -0.96,0c0,0.33 0,0.65 0,0.98c-0.32,0 -0.64,0 -0.96,0c0,0.33 0,0.65 0,0.98c-0.33,0 -0.65,0 -0.98,0c0,0.33 0,0.66 0,0.99c-0.48,0 -0.96,0 -1.45,0c0.02,-0.16 -0.04,-0.34 0.01,-0.49z" fill="none" id="svg_640" stroke="#000000" transform="matrix(1 0 0 1 0 0)"/>
  <text fill="#000000" font-family="Serif" font-size="5" id="svg_641" stroke="#000000" stroke-width="0" text-anchor="middle" x="330.32" xml:space="preserve" y="111.02">219</text>
  <text fill="#000000" font-family="Serif" font-size="5" id="svg_642" stroke="#000000" stroke-width="0" text-anchor="middle" x="360.32" xml:space="preserve" y="103.82">220</text>
  <text fill="#000000" font-family="Serif" font-size="5" id="svg_643" stroke="#000000" stroke-width="0" text-anchor="middle" x="360.32" xml:space="preserve" y="132.02">221</text>
  <text fill="#000000" font-family="Serif" font-size="5" id="svg_644" stroke="#000000" stroke-width="0" text-anchor="middle" x="330.22" xml:space="preserve" y="138.58">218</text>
  <text fill="#000000" font-family="Serif" font-size="5" id="svg_645" stroke="#000000" stroke-width="0" text-anchor="middle" x="361.22" xml:space="preserve" y="150.48">222</text>
  <text fill="#000000" font-family="Serif" font-size="5" id="svg_646" stroke="#000000" stroke-width="0" text-anchor="middle" x="360.22" xml:space="preserve" y="183.26">223</text>
  <text fill="#000000" font-family="Serif" font-size="5" id="svg_647" stroke="#000000" stroke-width="0" text-anchor="middle" x="329.92" xml:space="preserve" y="169.86">217</text>
  <text fill="#000000" font-family="Serif" font-size="5" id="svg_648" stroke="#000000" stroke-width="0" text-anchor="middle" x="329.12" xml:space="preserve" y="189.76">216A</text>
  <text fill="#000000" font-family="Serif" font-size="5" id="svg_649" stroke="#000000" stroke-width="0" text-anchor="middle" x="360.42" xml:space="preserve" y="222.66">224</text>
  <text fill="#000000" font-family="Serif" font-size="4" id="svg_650" stroke="#000000" stroke-width="0" text-anchor="middle" x="325.12" xml:space="preserve" y="238.28">215</text>
  <text fill="#000000" font-family="Serif" font-size="4" id="svg_651" stroke="#000000" stroke-width="0" text-anchor="middle" x="342.02" xml:space="preserve" y="268.68">225</text>
  <text fill="#000000" font-family="Serif" font-size="5" id="svg_652" stroke="#000000" stroke-width="0" text-anchor="middle" transform="matrix(1 0 0 1 0 0)" x="340.92" xml:space="preserve" y="290.16">226</text>
  <text fill="#000000" font-family="Serif" font-size="4" id="svg_653" stroke="#000000" stroke-width="0" text-anchor="middle" transform="matrix(1 0 0 1 0 0)" x="305.6" xml:space="preserve" y="248.76">214</text>
  <text fill="#000000" font-family="Serif" font-size="4" id="svg_654" stroke="#000000" stroke-width="0" text-anchor="middle" x="286.1" xml:space="preserve" y="249.46">213</text>
  <text fill="#000000" font-family="Serif" font-size="4" id="svg_656" stroke="#000000" stroke-width="0" text-anchor="middle" x="264.8" xml:space="preserve" y="248.26">213At</text>
  <text fill="#000000" font-family="Serif" font-size="8" id="svg_657" stroke="#000000" stroke-width="0" text-anchor="middle" transform="matrix(1 0 0 1 0 0)" x="286.32" xml:space="preserve" y="288.08">Зимний Сад</text>
  <text fill="#000000" font-family="Serif" font-size="4" id="svg_658" stroke="#000000" stroke-width="0" text-anchor="middle" transform="matrix(1 0 0 1 0 0)" x="247.72" xml:space="preserve" y="269.38">228</text>
  <text fill="#000000" font-family="Serif" font-size="4" id="svg_659" stroke="#000000" stroke-width="0" text-anchor="middle" x="247.82" xml:space="preserve" y="290.82">231</text>
  <text fill="#000000" font-family="Serif" font-size="4" id="svg_661" stroke="#000000" stroke-width="0" text-anchor="middle" x="248.72" xml:space="preserve" y="302.38">230</text>
  <text fill="#000000" font-family="Serif" font-size="4" id="svg_662" stroke="#000000" stroke-width="0" text-anchor="middle" transform="matrix(1 0 0 1 0 0)" x="248.62" xml:space="preserve" y="361.78">240</text>
  <text fill="#000000" font-family="Serif" font-size="3" id="svg_663" stroke="#000000" stroke-width="0" text-anchor="middle" transform="matrix(1 0 0 1 0 0)" x="248.52" xml:space="preserve" y="354.08">239</text>
  <text fill="#000000" font-family="Serif" font-size="6" id="svg_664" stroke="#000000" stroke-width="0" text-anchor="middle" transform="matrix(1 0 0 1 0 0)" x="292.62" xml:space="preserve" y="323.12">233</text>
  <text fill="#000000" font-family="Serif" font-size="6" id="svg_665" stroke="#000000" stroke-width="0" text-anchor="middle" transform="matrix(1 0 0 1 0 0)" x="293.22" xml:space="preserve" y="347.02">234</text>
  <text fill="#000000" font-family="Serif" font-size="4" id="svg_666" stroke="#000000" stroke-width="0" text-anchor="middle" transform="matrix(1 0 0 1 0 0)" x="244.42" xml:space="preserve" y="340.28">238</text>
  <text fill="#000000" font-family="Serif" font-size="4" id="svg_667" stroke="#000000" stroke-width="0" text-anchor="middle" transform="matrix(1 0 0 1 0 0)" x="254.12" xml:space="preserve" y="340.38">237</text>
  <text fill="#000000" font-family="Serif" font-size="4" id="svg_668" stroke="#000000" stroke-width="0" text-anchor="middle" x="262.82" xml:space="preserve" y="349.38">236</text>
  <text fill="#000000" font-family="Serif" font-size="4" id="svg_669" stroke="#000000" stroke-width="0" text-anchor="middle" x="272.52" xml:space="preserve" y="348.58">235</text>
  <text fill="#000000" font-family="Serif" font-size="2" id="svg_670" stroke="#000000" stroke-width="0" text-anchor="middle" transform="matrix(1 0 0 1 0 0)" x="242.36" xml:space="preserve" y="378.02">241</text>
  <text fill="#000000" font-family="Serif" font-size="6" id="svg_671" stroke="#000000" stroke-width="0" text-anchor="middle" transform="matrix(1 0 0 1 0 0)" x="213.86" xml:space="preserve" y="401.12">243</text>
  <text fill="#000000" font-family="Serif" font-size="6" id="svg_672" stroke="#000000" stroke-width="0" text-anchor="middle" transform="matrix(1 0 0 1 0 0)" x="236.56" xml:space="preserve" y="399.42">242</text>
  <text fill="#000000" font-family="Serif" font-size="4" id="svg_673" stroke="#000000" stroke-width="0" text-anchor="middle" transform="matrix(1 0 0 1 0 0)" x="212.86" xml:space="preserve" y="379.26">242A</text>
  <text fill="#000000" font-family="Serif" font-size="6" id="svg_674" stroke="#000000" stroke-width="0" text-anchor="middle" x="213.16" xml:space="preserve" y="367.96">244</text>
  <text fill="#000000" font-family="Serif" font-size="6" id="svg_675" stroke="#000000" stroke-width="0" text-anchor="middle" x="212.36" xml:space="preserve" y="342.06">245</text>
  <text fill="#000000" font-family="Serif" font-size="6" id="svg_676" stroke="#000000" stroke-width="0" text-anchor="middle" x="213.36" xml:space="preserve" y="321.38">246</text>
  <text fill="#000000" font-family="Serif" font-size="6" id="svg_677" stroke="#000000" stroke-width="0" text-anchor="middle" x="210.66" xml:space="preserve" y="298.42">247</text>
  <text fill="#000000" font-family="Serif" font-size="6" id="svg_678" stroke="#000000" stroke-width="0" text-anchor="middle" x="210.86" xml:space="preserve" y="276.92">248</text>
  <text fill="#000000" font-family="Serif" font-size="6" id="svg_679" stroke="#000000" stroke-width="0" text-anchor="middle" x="211.26" xml:space="preserve" y="254.82">249</text>
  <text fill="#000000" font-family="Serif" font-size="6" id="svg_680" stroke="#000000" stroke-width="0" text-anchor="middle" x="211.06" xml:space="preserve" y="231.98">201</text>
  <text fill="#000000" font-family="Serif" font-size="6" id="svg_681" stroke="#000000" stroke-width="0" text-anchor="middle" x="209.56" xml:space="preserve" y="207.58">202</text>
  <text fill="#000000" font-family="Serif" font-size="4" id="svg_682" stroke="#000000" stroke-width="0" text-anchor="middle" transform="matrix(1 0 0 1 0 0)" x="206.66" xml:space="preserve" y="187.38">202A</text>
  <text fill="#000000" font-family="Serif" font-size="6" id="svg_683" stroke="#000000" stroke-width="0" text-anchor="middle" transform="matrix(1 0 0 1 0 0)" x="242.76" xml:space="preserve" y="189.56">211</text>
  <text fill="#000000" font-family="Serif" font-size="6" id="svg_684" stroke="#000000" stroke-width="0" text-anchor="middle" x="209.96" xml:space="preserve" y="163.86">204</text>
  <text fill="#000000" font-family="Serif" font-size="6" id="svg_685" stroke="#000000" stroke-width="0" text-anchor="middle" x="241.86" xml:space="preserve" y="162.42">210</text>
  <text fill="#000000" font-family="Serif" font-size="6" id="svg_686" stroke="#000000" stroke-width="0" text-anchor="middle" x="242.76" xml:space="preserve" y="132.98">209</text>
  <text fill="#000000" font-family="Serif" font-size="6" id="svg_687" stroke="#000000" stroke-width="0" text-anchor="middle" x="209.86" xml:space="preserve" y="133.02">205</text>
  <text fill="#000000" font-family="Serif" font-size="6" id="svg_688" stroke="#000000" stroke-width="0" style="cursor: move;" text-anchor="middle" x="209.36" xml:space="preserve" y="108.42">206</text>
  <text fill="#000000" font-family="Serif" font-size="6" id="svg_689" stroke="#000000" stroke-width="0" text-anchor="middle" transform="matrix(1 0 0 1 0 0)" x="242.26" xml:space="preserve" y="108.46">208</text>
  <text fill="#000000" font-family="Serif" font-size="6" id="svg_690" stroke="#000000" stroke-width="0" text-anchor="middle" x="209.86" xml:space="preserve" y="88.12">207</text>
  <path d="m237.99,223.29c0.31,0 0.62,0 0.93,-0.01c0,-0.32 0,-0.64 0.01,-0.96c0.31,0 0.62,0 0.93,0c0,-0.32 0,-0.64 0,-0.97c0.32,0 0.64,0 0.95,0c0,-0.31 0,-0.63 0,-0.94c0.31,0 0.63,0 0.94,0c0,-0.31 0,-0.63 0,-0.94c0.47,0 0.93,0 1.4,0c0,0.16 0,0.31 0,0.47c-0.31,0 -0.62,0 -0.93,0c0,0.32 0,0.64 0,0.95c-0.31,0 -0.63,0 -0.94,0c0,0.32 0,0.64 0,0.95c-0.31,0 -0.63,0 -0.94,0c0,0.32 0,0.64 0,0.95c-0.32,0 -0.64,0 -0.95,0c0,0.32 0,0.64 0,0.97c-0.47,0 -0.94,0 -1.41,0c0.02,-0.16 -0.04,-0.33 0.01,-0.48z" fill="none" id="svg_691" stroke="#000000"/>
  <path d="m243.87,280.7c0.49,0 0.99,-0.01 1.48,-0.01c0,-0.51 0.01,-1.01 0.01,-1.52c0.49,0 0.98,0 1.47,0c0,-0.51 0,-1.02 0,-1.53c0.5,0 1.01,0 1.51,0c0,-0.5 0,-0.99 0,-1.49c0.5,0 0.99,0 1.49,0c0,-0.5 0,-0.99 0,-1.49c0.74,0 1.48,0 2.22,0c0,0.25 0,0.5 0,0.75c-0.49,0 -0.98,0 -1.47,0c0,0.5 0,1.01 0,1.51c-0.5,0 -0.99,0 -1.49,0c0,0.5 0,1.01 0,1.51c-0.5,0 -0.99,0 -1.49,0c0,0.5 0,1.01 0,1.51c-0.5,0 -1.01,0 -1.51,0c0,0.51 0,1.02 0,1.53c-0.75,0 -1.49,0 -2.24,0c0.03,-0.25 -0.06,-0.53 0.02,-0.76z" fill="none" id="svg_692" stroke="#000000"/>
  <path d="m244.07,320.18c0.43,0 0.86,-0.01 1.28,-0.01c0,-0.44 0.01,-0.88 0.01,-1.32c0.43,0 0.85,0 1.28,0c0,-0.44 0,-0.88 0,-1.33c0.44,0 0.87,0 1.31,0c0,-0.43 0,-0.86 0,-1.29c0.43,0 0.86,0 1.29,0c0,-0.43 0,-0.86 0,-1.29c0.64,0 1.28,0 1.92,0c0,0.22 0,0.43 0,0.65c-0.43,0 -0.85,0 -1.28,0c0,0.44 0,0.87 0,1.31c-0.43,0 -0.86,0 -1.29,0c0,0.44 0,0.87 0,1.31c-0.43,0 -0.86,0 -1.29,0c0,0.44 0,0.87 0,1.31c-0.44,0 -0.87,0 -1.31,0c0,0.44 0,0.88 0,1.33c-0.65,0 -1.29,0 -1.94,0c0.03,-0.21 -0.05,-0.46 0.02,-0.66z" fill="none" id="svg_693" stroke="#000000"/>
  <path d="m208.93,387.68c0.26,0 0.52,0 0.78,-0.01c0,-0.27 0,-0.54 0.01,-0.8c0.26,0 0.52,0 0.78,0c0,-0.27 0,-0.54 0,-0.81c0.27,0 0.53,0 0.8,0c0,-0.26 0,-0.53 0,-0.79c0.26,0 0.53,0 0.79,0c0,-0.26 0,-0.53 0,-0.79c0.39,0 0.78,0 1.17,0c0,0.13 0,0.26 0,0.39c-0.26,0 -0.52,0 -0.78,0c0,0.27 0,0.53 0,0.8c-0.26,0 -0.53,0 -0.79,0c0,0.27 0,0.53 0,0.8c-0.26,0 -0.53,0 -0.79,0c0,0.27 0,0.53 0,0.8c-0.27,0 -0.53,0 -0.8,0c0,0.27 0,0.54 0,0.81c-0.39,0 -0.79,0 -1.18,0c0.02,-0.13 -0.03,-0.28 0.01,-0.4z" fill="none" id="svg_694" stroke="#000000"/>
  <path d="m238.89,85.37c0.34,0 0.68,0 1.02,-0.01c0,-0.35 0,-0.7 0.01,-1.05c0.34,0 0.68,0 1.02,0c0,-0.35 0,-0.7 0,-1.06c0.35,0 0.7,0 1.04,0c0,-0.34 0,-0.69 0,-1.03c0.34,0 0.69,0 1.03,0c0,-0.34 0,-0.69 0,-1.03c0.51,0 1.02,0 1.53,0c0,0.17 0,0.34 0,0.52c-0.34,0 -0.68,0 -1.02,0c0,0.35 0,0.7 0,1.04c-0.34,0 -0.69,0 -1.03,0c0,0.35 0,0.7 0,1.04c-0.34,0 -0.69,0 -1.03,0c0,0.35 0,0.7 0,1.04c-0.35,0 -0.7,0 -1.04,0c0,0.35 0,0.7 0,1.06c-0.52,0 -1.03,0 -1.55,0c0.02,-0.17 -0.04,-0.36 0.01,-0.53z" fill="none" id="svg_695" stroke="#000000" transform="matrix(1 0 0 1 0 0)"/>
 </g>
</svg>